<svg width="500" height="360" viewBox="0 0 500 360" fill="none" xmlns="http://www.w3.org/2000/svg">
<rect x="1.03306" y="1.03306" width="497.934" height="357.438" rx="19.6281" fill="#C4C4C4" fill-opacity="0.28" stroke="white" stroke-width="2.06612"/>
<rect x="116.735" y="170.455" width="22.7273" height="117.769" fill="url(#paint0_linear_131_53)" stroke="white" stroke-width="2.06612"/>
<rect x="140.703" y="128.306" width="24.3802" height="160.744" fill="url(#paint1_linear_131_53)" stroke="#B0B0B0" stroke-width="0.413223"/>
<rect x="165.496" y="113.843" width="24.3802" height="175.207" fill="url(#paint2_linear_131_53)" stroke="#B0B0B0" stroke-width="0.413223"/>
<rect x="190.29" y="97.314" width="24.3802" height="191.736" fill="url(#paint3_linear_131_53)" stroke="#B0B0B0" stroke-width="0.413223"/>
<rect x="215.083" y="78.7191" width="24.3802" height="210.331" fill="url(#paint4_linear_131_53)" stroke="#B0B0B0" stroke-width="0.413223"/>
<rect x="239.876" y="78.7191" width="24.3802" height="210.331" fill="url(#paint5_linear_131_53)" stroke="#B0B0B0" stroke-width="0.413223"/>
<rect x="264.67" y="68.3884" width="24.3802" height="220.661" fill="url(#paint6_linear_131_53)" stroke="#B0B0B0" stroke-width="0.413223"/>
<rect x="289.462" y="113.843" width="24.3802" height="175.207" fill="url(#paint7_linear_131_53)" stroke="#B0B0B0" stroke-width="0.413223"/>
<rect x="314.256" y="179.959" width="24.3802" height="109.091" fill="url(#paint8_linear_131_53)" stroke="#B0B0B0" stroke-width="0.413223"/>
<rect x="339.049" y="194.421" width="24.3802" height="94.6281" fill="url(#paint9_linear_131_53)" stroke="#B0B0B0" stroke-width="0.413223"/>
<rect x="363.843" y="223.347" width="24.3802" height="65.7025" fill="url(#paint10_linear_131_53)" stroke="#B0B0B0" stroke-width="0.413223"/>
<line x1="26.8594" y1="288.223" x2="477.273" y2="288.223" stroke="black" stroke-width="2.06612"/>
<line x1="48.5536" y1="78.5125" x2="48.5536" y2="330.579" stroke="black" stroke-width="2.06612"/>
<line x1="238.637" y1="301.653" x2="238.637" y2="316.116" stroke="black" stroke-width="2.06612"/>
<path d="M179.007 334.983V317.628H183.978C184.424 317.628 184.916 317.673 185.453 317.764C185.991 317.847 186.524 318.004 187.053 318.235C187.59 318.467 188.077 318.797 188.515 319.227C188.953 319.657 189.305 320.211 189.569 320.888C189.834 321.566 189.966 322.405 189.966 323.405C189.966 324.397 189.834 325.235 189.569 325.921C189.305 326.607 188.953 327.173 188.515 327.62C188.077 328.066 187.59 328.413 187.053 328.661C186.524 328.901 185.991 329.07 185.453 329.169C184.916 329.26 184.424 329.306 183.978 329.306H181.474V334.983H179.007ZM181.474 327.421H183.78C184.152 327.421 184.548 327.372 184.97 327.273C185.4 327.173 185.805 326.983 186.185 326.702C186.565 326.421 186.875 326.016 187.115 325.488C187.354 324.959 187.474 324.264 187.474 323.405C187.474 322.545 187.354 321.859 187.115 321.347C186.875 320.826 186.565 320.434 186.185 320.169C185.805 319.905 185.4 319.731 184.97 319.649C184.548 319.558 184.152 319.512 183.78 319.512H181.474V327.421ZM195.294 334.983V333.099H197.909V324.471H195.294V322.587H199.905L200.364 325.649V333.099H203.352V334.983H195.294ZM200.327 327.769L199.335 327.372C199.352 326.835 199.459 326.318 199.657 325.822C199.864 325.318 200.137 324.851 200.475 324.421C200.814 323.992 201.207 323.62 201.653 323.306C202.099 322.992 202.579 322.744 203.091 322.562C203.612 322.38 204.145 322.289 204.69 322.289C205.244 322.289 205.661 322.339 205.942 322.438C206.232 322.529 206.422 322.603 206.513 322.661L205.955 324.769C205.872 324.702 205.699 324.632 205.434 324.558C205.17 324.475 204.818 324.434 204.38 324.434C203.918 324.434 203.459 324.529 203.004 324.719C202.558 324.909 202.145 325.165 201.765 325.488C201.393 325.802 201.079 326.161 200.823 326.566C200.575 326.963 200.409 327.364 200.327 327.769ZM216.44 335.256C215.696 335.256 214.956 335.128 214.221 334.872C213.493 334.607 212.832 334.211 212.237 333.682C211.642 333.153 211.167 332.479 210.812 331.661C210.456 330.843 210.279 329.876 210.279 328.76C210.279 327.645 210.456 326.678 210.812 325.859C211.167 325.041 211.642 324.372 212.237 323.851C212.841 323.322 213.51 322.93 214.246 322.673C214.981 322.417 215.729 322.289 216.489 322.289C217.283 322.289 218.043 322.413 218.77 322.661C219.498 322.909 220.142 323.277 220.704 323.764C221.274 324.252 221.725 324.864 222.055 325.599C222.386 326.335 222.551 327.194 222.551 328.178C222.551 328.335 222.543 328.508 222.526 328.698C222.518 328.888 222.498 329.054 222.465 329.194H212.237V327.62H219.96C219.96 327.57 219.96 327.537 219.96 327.521C219.96 327.496 219.96 327.463 219.96 327.421C219.96 326.752 219.803 326.173 219.489 325.686C219.175 325.198 218.754 324.826 218.225 324.57C217.704 324.306 217.138 324.173 216.526 324.173C216.08 324.173 215.638 324.26 215.2 324.434C214.762 324.599 214.361 324.864 213.998 325.227C213.634 325.591 213.341 326.066 213.117 326.653C212.903 327.231 212.795 327.93 212.795 328.748C212.795 329.764 212.973 330.616 213.328 331.302C213.692 331.979 214.159 332.492 214.729 332.839C215.307 333.186 215.923 333.359 216.576 333.359C217.188 333.359 217.717 333.264 218.163 333.074C218.609 332.876 218.973 332.632 219.254 332.343C219.535 332.045 219.725 331.756 219.824 331.475L222.08 332.603C221.89 332.95 221.626 333.285 221.287 333.607C220.956 333.921 220.551 334.202 220.072 334.45C219.601 334.698 219.06 334.892 218.448 335.033C217.845 335.182 217.175 335.256 216.44 335.256ZM241.553 334.983V327.508C241.553 326.434 241.363 325.628 240.982 325.091C240.611 324.554 239.995 324.285 239.135 324.285C238.59 324.285 238.086 324.434 237.623 324.731C237.168 325.029 236.797 325.417 236.507 325.897C236.226 326.368 236.073 326.864 236.049 327.384L235.106 327.198C235.106 326.587 235.23 325.992 235.478 325.413C235.735 324.826 236.082 324.302 236.52 323.839C236.966 323.368 237.487 322.996 238.082 322.723C238.685 322.442 239.334 322.302 240.028 322.302C240.904 322.302 241.635 322.475 242.222 322.822C242.817 323.161 243.263 323.694 243.561 324.421C243.858 325.14 244.007 326.074 244.007 327.223V334.983H241.553ZM225.697 334.983V322.587H227.941L228.152 325.14V334.983H225.697ZM233.619 334.983V327.508C233.619 326.434 233.429 325.628 233.049 325.091C232.668 324.554 232.053 324.285 231.201 324.285C230.656 324.285 230.156 324.434 229.701 324.731C229.247 325.029 228.879 325.417 228.598 325.897C228.317 326.368 228.164 326.864 228.139 327.384L227.197 327.198C227.206 326.587 227.334 325.992 227.582 325.413C227.83 324.826 228.177 324.302 228.623 323.839C229.069 323.368 229.586 322.996 230.173 322.723C230.768 322.442 231.408 322.302 232.094 322.302C233.416 322.302 234.408 322.673 235.069 323.417C235.739 324.161 236.073 325.297 236.073 326.826V334.983H233.619ZM246.626 334.983V333.099H250.692V324.471H247.196V322.587H253.146V333.099H257.002V334.983H246.626ZM250.617 317.417H253.196V320.231H250.617V317.417ZM264.588 335.269C263.952 335.269 263.369 335.169 262.841 334.971C262.32 334.773 261.874 334.463 261.502 334.041C261.138 333.611 260.857 333.062 260.659 332.392C260.46 331.715 260.361 330.905 260.361 329.963V322.587H262.816V329.591C262.816 330.467 262.907 331.178 263.088 331.723C263.279 332.26 263.56 332.657 263.931 332.913C264.312 333.161 264.795 333.285 265.382 333.285C265.803 333.285 266.2 333.202 266.572 333.037C266.952 332.872 267.287 332.64 267.576 332.343C267.874 332.045 268.113 331.702 268.295 331.314C268.477 330.926 268.58 330.512 268.605 330.074L269.299 330.297C269.299 330.917 269.196 331.525 268.989 332.12C268.791 332.707 268.493 333.24 268.097 333.719C267.708 334.19 267.221 334.566 266.634 334.847C266.047 335.128 265.365 335.269 264.588 335.269ZM269.002 334.983L268.543 332.331V322.587H270.998V333.682L270.514 333.099H272.46V334.983H269.002ZM291.139 334.983V327.508C291.139 326.434 290.949 325.628 290.569 325.091C290.197 324.554 289.582 324.285 288.722 324.285C288.177 324.285 287.673 324.434 287.21 324.731C286.755 325.029 286.383 325.417 286.094 325.897C285.813 326.368 285.66 326.864 285.635 327.384L284.693 327.198C284.693 326.587 284.817 325.992 285.065 325.413C285.321 324.826 285.668 324.302 286.106 323.839C286.553 323.368 287.073 322.996 287.668 322.723C288.272 322.442 288.92 322.302 289.615 322.302C290.491 322.302 291.222 322.475 291.809 322.822C292.404 323.161 292.85 323.694 293.148 324.421C293.445 325.14 293.594 326.074 293.594 327.223V334.983H291.139ZM275.284 334.983V322.587H277.528L277.739 325.14V334.983H275.284ZM283.206 334.983V327.508C283.206 326.434 283.016 325.628 282.635 325.091C282.255 324.554 281.639 324.285 280.788 324.285C280.243 324.285 279.743 324.434 279.288 324.731C278.834 325.029 278.466 325.417 278.185 325.897C277.904 326.368 277.751 326.864 277.726 327.384L276.784 327.198C276.792 326.587 276.92 325.992 277.168 325.413C277.416 324.826 277.763 324.302 278.21 323.839C278.656 323.368 279.173 322.996 279.759 322.723C280.354 322.442 280.995 322.302 281.681 322.302C283.003 322.302 283.995 322.673 284.656 323.417C285.325 324.161 285.66 325.297 285.66 326.826V334.983H283.206Z" fill="white"/>
<path d="M31.3376 241.657L13.9823 241.604L13.9897 239.137L29.4607 239.184L29.4809 232.465L31.3652 232.471L31.3376 241.657ZM31.3725 230.066L29.4882 230.06L29.5004 225.994L20.8723 225.968L20.8618 229.464L18.9775 229.458L18.9954 223.508L29.5078 223.539L29.5194 219.684L31.4037 219.69L31.3725 230.066ZM13.8184 226.021L13.8262 223.443L16.6402 223.451L16.6325 226.03L13.8184 226.021ZM36.4047 205.61L36.3973 208.064L21.1247 208.018L19.0428 207.752L19.0494 205.557L36.4047 205.61ZM31.7 211.831C31.6981 212.484 31.568 213.124 31.3099 213.751C31.0519 214.37 30.6576 214.931 30.1272 215.434C29.5885 215.936 28.9096 216.339 28.0905 216.643C27.2714 216.938 26.304 217.083 25.1883 217.08C23.7007 217.076 22.4825 216.824 21.5336 216.325C20.5764 215.827 19.8758 215.184 19.4319 214.398C18.9797 213.611 18.7549 212.784 18.7576 211.916C18.7599 211.139 18.9149 210.45 19.2225 209.847C19.5301 209.237 19.9325 208.721 20.4296 208.301C20.9185 207.873 21.4484 207.552 22.0193 207.339C22.5902 207.118 23.1401 207.008 23.669 207.009L24.0009 207.94C23.5957 208.022 23.2028 208.153 22.8221 208.333C22.4331 208.506 22.0812 208.732 21.7663 209.012C21.4514 209.292 21.2025 209.618 21.0196 209.989C20.8284 210.36 20.7321 210.777 20.7307 211.24C20.7288 211.852 20.8883 212.414 21.2091 212.928C21.5216 213.441 22.008 213.852 22.6682 214.159C23.3202 214.467 24.1627 214.622 25.1957 214.626C26.2122 214.629 27.0557 214.474 27.7261 214.162C28.3964 213.842 28.8977 213.422 29.2298 212.902C29.562 212.374 29.729 211.8 29.7309 211.181C29.7323 210.726 29.6343 210.312 29.4371 209.94C29.2316 209.559 28.9599 209.232 28.6219 208.958C28.2838 208.684 27.9043 208.464 27.4834 208.298C27.0624 208.131 26.6288 208.027 26.1826 207.984L26.5204 206.981C27.0658 206.982 27.644 207.092 28.2549 207.308C28.8576 207.525 29.4228 207.841 29.9504 208.256C30.4699 208.67 30.894 209.176 31.2227 209.772C31.5433 210.368 31.7024 211.054 31.7 211.831ZM31.7601 195.979C31.7582 196.615 31.6572 197.197 31.4573 197.726C31.2574 198.246 30.9461 198.691 30.5235 199.062C30.0927 199.424 29.5423 199.703 28.8723 199.9C28.194 200.096 27.3838 200.193 26.4416 200.19L19.0656 200.168L19.073 197.713L26.0771 197.734C26.9531 197.737 27.6641 197.648 28.2101 197.468C28.7479 197.279 29.1454 197 29.4028 196.628C29.6518 196.249 29.7772 195.766 29.779 195.179C29.7803 194.758 29.6988 194.361 29.5347 193.988C29.3705 193.608 29.1401 193.272 28.8435 192.982C28.5468 192.684 28.2046 192.443 27.8167 192.26C27.4288 192.077 27.0159 191.973 26.578 191.946L26.8032 191.253C27.423 191.255 28.0302 191.36 28.6246 191.568C29.2108 191.768 29.7429 192.067 30.2211 192.466C30.691 192.855 31.0655 193.344 31.3448 193.932C31.624 194.519 31.7624 195.202 31.7601 195.979ZM31.4882 191.564L28.834 192.015L19.0902 191.986L19.0976 189.531L30.1926 189.565L29.6085 190.046L29.6143 188.1L31.4986 188.106L31.4882 191.564ZM31.5067 185.418L29.6224 185.413L29.6347 181.347L21.0066 181.321L20.9961 184.817L19.1118 184.811L19.1297 178.861L29.642 178.892L29.6536 175.037L31.5379 175.042L31.5067 185.418ZM13.9527 181.374L13.9604 178.795L16.7745 178.804L16.7667 181.382L13.9527 181.374ZM31.8335 167.457C31.8315 168.109 31.7015 168.75 31.4434 169.377C31.1853 169.996 30.7911 170.557 30.2606 171.059C29.7219 171.562 29.043 171.965 28.2239 172.268C27.4049 172.563 26.4375 172.709 25.3218 172.706C23.8342 172.701 22.6159 172.45 21.667 171.951C20.7098 171.452 20.0093 170.809 19.5654 170.023C19.1132 169.236 18.8884 168.409 18.891 167.542C18.8933 166.765 19.0483 166.075 19.3559 165.473C19.6635 164.862 20.0659 164.347 20.563 163.927C21.0519 163.498 21.5818 163.178 22.1527 162.965C22.7236 162.743 23.2735 162.633 23.8025 162.635L24.1344 163.566C23.7292 163.647 23.3362 163.778 22.9555 163.959C22.5666 164.131 22.2146 164.357 21.8997 164.637C21.5848 164.917 21.3359 165.243 21.153 165.614C20.9618 165.986 20.8655 166.403 20.8641 166.866C20.8623 167.477 21.0217 168.04 21.3425 168.553C21.655 169.066 22.1414 169.477 22.8016 169.785C23.4536 170.093 24.2961 170.248 25.3292 170.251C26.3457 170.254 27.1891 170.1 27.8595 169.788C28.5299 169.467 29.0311 169.047 29.3633 168.528C29.6955 168 29.8625 167.426 29.8643 166.806C29.8657 166.351 29.7678 165.938 29.5705 165.565C29.3651 165.185 29.0933 164.857 28.7553 164.584C28.4173 164.31 28.0378 164.09 27.6168 163.923C27.1958 163.757 26.7622 163.652 26.3161 163.609L26.6538 162.606C27.1993 162.608 27.7774 162.717 28.3884 162.934C28.991 163.15 29.5562 163.466 30.0839 163.881C30.6033 164.296 31.0274 164.801 31.3562 165.397C31.6767 165.993 31.8358 166.68 31.8335 167.457ZM12.9845 161.164L30.7861 161.218L29.6795 162.318L29.6887 159.256L31.5854 159.262L31.5729 163.402L28.9688 163.679L12.9771 163.631L12.9845 161.164ZM31.5925 156.896L29.7082 156.891L29.7204 152.825L21.0924 152.799L21.0818 156.295L19.1976 156.289L19.2155 150.339L29.7278 150.37L29.7394 146.515L31.6237 146.521L31.5925 156.896ZM14.0385 152.852L14.0462 150.273L16.8602 150.282L16.8525 152.86L14.0385 152.852ZM28.0805 141.629L15.312 141.591L15.3194 139.124L28.0136 139.162C28.559 139.164 28.989 139.091 29.3035 138.943C29.618 138.787 29.8459 138.577 29.9872 138.313C30.1202 138.049 30.1872 137.751 30.1882 137.421C30.1893 137.082 30.1241 136.768 29.9927 136.478C29.8614 136.188 29.6348 135.956 29.313 135.782C28.9912 135.607 28.5411 135.519 27.9625 135.517L27.9686 133.497C28.6959 133.499 29.3112 133.617 29.8147 133.849C30.3098 134.082 30.7097 134.398 31.0143 134.795C31.3189 135.185 31.5407 135.632 31.6797 136.136C31.8187 136.632 31.8874 137.153 31.8858 137.699C31.8841 138.261 31.8164 138.781 31.6827 139.26C31.5491 139.731 31.3329 140.143 31.0344 140.498C30.7275 140.852 30.33 141.132 29.8417 141.337C29.3535 141.534 28.7665 141.631 28.0805 141.629ZM21.1168 144.67L19.2325 144.665L19.2665 133.359L21.1508 133.365L21.1168 144.67ZM36.6472 124.972L31.1248 122.773L31.7716 122.081L31.7666 123.742L19.2817 128.304L19.2894 125.75L30.2719 121.953L30.2706 122.411L19.3109 118.597L19.3185 116.081L36.6546 122.505L36.6472 124.972Z" fill="white"/>
<defs>
<linearGradient id="paint0_linear_131_53" x1="128.099" y1="169.422" x2="128.099" y2="289.256" gradientUnits="userSpaceOnUse">
<stop stop-color="#0C1E7F"/>
<stop offset="1" stop-color="#FF008E"/>
</linearGradient>
<linearGradient id="paint1_linear_131_53" x1="152.893" y1="128.099" x2="152.893" y2="289.256" gradientUnits="userSpaceOnUse">
<stop stop-color="#0C1E7F"/>
<stop offset="1" stop-color="#FF008E"/>
</linearGradient>
<linearGradient id="paint2_linear_131_53" x1="177.686" y1="113.636" x2="177.686" y2="289.256" gradientUnits="userSpaceOnUse">
<stop stop-color="#0C1E7F"/>
<stop offset="1" stop-color="#FF008E"/>
</linearGradient>
<linearGradient id="paint3_linear_131_53" x1="202.48" y1="97.1074" x2="202.48" y2="289.256" gradientUnits="userSpaceOnUse">
<stop stop-color="#0C1E7F"/>
<stop offset="1" stop-color="#FF008E"/>
</linearGradient>
<linearGradient id="paint4_linear_131_53" x1="227.273" y1="78.5125" x2="227.273" y2="289.256" gradientUnits="userSpaceOnUse">
<stop stop-color="#0C1E7F"/>
<stop offset="1" stop-color="#FF008E"/>
</linearGradient>
<linearGradient id="paint5_linear_131_53" x1="252.066" y1="78.5125" x2="252.066" y2="289.256" gradientUnits="userSpaceOnUse">
<stop stop-color="#0C1E7F"/>
<stop offset="1" stop-color="#FF008E"/>
</linearGradient>
<linearGradient id="paint6_linear_131_53" x1="276.86" y1="68.1818" x2="276.86" y2="289.256" gradientUnits="userSpaceOnUse">
<stop stop-color="#0C1E7F"/>
<stop offset="1" stop-color="#FF008E"/>
</linearGradient>
<linearGradient id="paint7_linear_131_53" x1="301.653" y1="113.636" x2="301.653" y2="289.256" gradientUnits="userSpaceOnUse">
<stop stop-color="#0C1E7F"/>
<stop offset="1" stop-color="#FF008E"/>
</linearGradient>
<linearGradient id="paint8_linear_131_53" x1="326.446" y1="179.752" x2="326.446" y2="289.256" gradientUnits="userSpaceOnUse">
<stop stop-color="#0C1E7F"/>
<stop offset="1" stop-color="#FF008E"/>
</linearGradient>
<linearGradient id="paint9_linear_131_53" x1="351.239" y1="194.215" x2="351.239" y2="289.256" gradientUnits="userSpaceOnUse">
<stop stop-color="#0C1E7F"/>
<stop offset="1" stop-color="#FF008E"/>
</linearGradient>
<linearGradient id="paint10_linear_131_53" x1="376.033" y1="223.141" x2="376.033" y2="289.256" gradientUnits="userSpaceOnUse">
<stop stop-color="#0C1E7F"/>
<stop offset="1" stop-color="#FF008E"/>
</linearGradient>
</defs>
</svg>
