<svg width="45" height="38" viewBox="0 0 45 38" fill="none" xmlns="http://www.w3.org/2000/svg">
<path fill-rule="evenodd" clip-rule="evenodd" d="M22.0425 0C9.90974 0 0.0742188 8.50659 0.0742188 19C0.0742188 29.4934 9.90974 38 22.0425 38C34.1752 38 44.0107 29.4934 44.0107 19C44.0107 8.50659 34.1752 0 22.0425 0ZM13.7176 8.23333H31.0997C32.5655 8.23333 33.7589 9.253 33.7589 10.5165V30.4L30.97 28.2942L29.4004 27.0528L27.74 25.7339L28.4275 27.7843H13.7176C12.2517 27.7843 11.0583 26.7647 11.0583 25.5012V10.5165C11.0583 9.253 12.2517 8.23333 13.7176 8.23333Z" fill="white"/>
<path fill-rule="evenodd" clip-rule="evenodd" d="M26.0928 22.7082C26.0928 22.7082 25.6258 22.2316 25.2366 21.8104C26.9359 21.4003 27.5845 20.4915 27.5845 20.4915C27.0527 20.7907 26.5468 21.0013 26.0928 21.1454C25.4442 21.3782 24.8215 21.5333 24.2119 21.622C22.9666 21.8215 21.8251 21.7661 20.8522 21.6109C20.1128 21.489 19.4772 21.3117 18.9453 21.1343C18.647 21.0346 18.3227 20.9127 17.9984 20.7575C17.9789 20.7464 17.9595 20.7381 17.94 20.7298C17.9206 20.7215 17.9011 20.7132 17.8817 20.7021C17.8557 20.691 17.8427 20.6799 17.8298 20.6688C17.5963 20.558 17.4666 20.4804 17.4666 20.4804C17.4666 20.4804 18.0892 21.3671 19.7366 21.7882C19.3475 22.2094 18.8675 22.7082 18.8675 22.7082C16.0008 22.6306 14.9111 21.0235 14.9111 21.0235C14.9111 17.4547 16.7791 14.5619 16.7791 14.5619C18.647 13.3649 20.4241 13.3982 20.4241 13.3982L20.5538 13.5312C18.2189 14.1075 17.1423 14.9831 17.1423 14.9831C17.1423 14.9831 17.4276 14.8501 17.9076 14.6617C19.2956 14.1407 20.3982 13.9967 20.8522 13.9634L20.8813 13.9592C20.9467 13.9497 21.0048 13.9412 21.0727 13.9412C21.864 13.8526 22.759 13.8304 23.693 13.9191C24.9253 14.041 26.2484 14.3513 27.5975 14.9831C27.5975 14.9831 26.5727 14.1518 24.3675 13.5755L24.5491 13.3982C24.5491 13.3982 26.3263 13.3649 28.1942 14.5619C28.1942 14.5619 30.0621 17.4547 30.0621 21.0235C30.0621 21.0235 28.9595 22.6306 26.0928 22.7082ZM20.4262 17.7333C19.6927 17.7333 19.1136 18.3039 19.1136 19C19.1136 19.6961 19.7056 20.2667 20.4262 20.2667C21.1598 20.2667 21.7389 19.6961 21.7389 19C21.7518 18.3039 21.1598 17.7333 20.4262 17.7333ZM23.8109 19C23.8109 18.3039 24.3901 17.7333 25.1236 17.7333C25.8572 17.7333 26.4363 18.3039 26.4363 19C26.4363 19.6961 25.8572 20.2667 25.1236 20.2667C24.4029 20.2667 23.8109 19.6961 23.8109 19Z" fill="white"/>
</svg>
