<svg width="44" height="38" viewBox="0 0 44 38" fill="none" xmlns="http://www.w3.org/2000/svg">
<path d="M22.0711 0.142456C9.96246 0.142456 0.143555 8.77788 0.143555 19.4311C0.143555 27.9534 6.42648 35.1837 15.139 37.7343C16.2348 37.9128 16.6372 37.3158 16.6372 36.8064C16.6372 36.3464 16.6168 34.8269 16.6074 33.2152C10.5071 34.382 9.21989 30.9393 9.21989 30.9393C8.22243 28.7098 6.78523 28.1169 6.78523 28.1169C4.79574 26.9198 6.93519 26.9444 6.93519 26.9444C9.1371 27.0801 10.2965 28.9321 10.2965 28.9321C12.2522 31.881 15.4262 31.0284 16.6775 30.5356C16.8743 29.2892 17.4426 28.4376 18.0697 27.9563C13.1992 27.4685 8.07936 25.8146 8.07936 18.4236C8.07936 16.3177 8.93594 14.597 10.3386 13.2462C10.111 12.76 9.36042 10.7985 10.5511 8.1416C10.5511 8.1416 12.3924 7.62319 16.5827 10.1188C18.3318 9.69141 20.2077 9.47708 22.0711 9.46974C23.9346 9.47708 25.8119 9.69141 27.5643 10.1188C31.7495 7.62319 33.5883 8.1416 33.5883 8.1416C34.7819 10.7985 34.0309 12.76 33.8033 13.2462C35.2092 14.597 36.06 16.3177 36.06 18.4236C36.06 25.8322 30.9303 27.4634 26.0476 27.941C26.8341 28.5395 27.5349 29.7134 27.5349 31.513C27.5349 34.0936 27.5095 36.1707 27.5095 36.8064C27.5095 37.3197 27.9042 37.9211 29.0157 37.7317C37.7234 35.1783 43.9984 27.9505 43.9984 19.4311C43.9984 8.77788 34.1809 0.142456 22.0711 0.142456Z" fill="white"/>
<path d="M8.44858 27.8368C8.40028 27.933 8.22889 27.9614 8.07276 27.8956C7.91371 27.8327 7.82439 27.702 7.87595 27.6059C7.92316 27.5072 8.09491 27.48 8.25359 27.5455C8.41299 27.6087 8.50377 27.7407 8.44858 27.8368Z" fill="white"/>
<path d="M9.33725 28.7082C9.23267 28.7935 9.02824 28.7539 8.88953 28.6191C8.7461 28.4846 8.71923 28.3048 8.82526 28.2182C8.93311 28.1329 9.13137 28.1728 9.27516 28.3073C9.41859 28.4434 9.44655 28.6219 9.33725 28.7082Z" fill="white"/>
<path d="M10.2016 29.8191C10.0672 29.9012 9.84754 29.8242 9.71173 29.6527C9.57738 29.4812 9.57738 29.2755 9.71464 29.1931C9.8508 29.1106 10.0672 29.1848 10.2048 29.355C10.3388 29.5291 10.3388 29.7351 10.2016 29.8191Z" fill="white"/>
<path d="M11.3861 30.8924C11.2659 31.0089 11.0099 30.9776 10.8226 30.8186C10.6308 30.663 10.5775 30.4423 10.698 30.3257C10.8197 30.2088 11.0771 30.2417 11.2659 30.3995C11.4562 30.5547 11.5143 30.7771 11.3861 30.8924Z" fill="white"/>
<path d="M13.0198 31.5155C12.9668 31.6666 12.7202 31.7353 12.4718 31.6711C12.2238 31.605 12.0615 31.428 12.1116 31.2753C12.1632 31.1233 12.4108 31.0517 12.661 31.1204C12.9087 31.1862 13.0713 31.3619 13.0198 31.5155Z" fill="white"/>
<path d="M14.8143 31.6312C14.8205 31.7902 14.6099 31.9221 14.3492 31.9247C14.087 31.9301 13.875 31.8014 13.8721 31.6449C13.8721 31.4842 14.078 31.3536 14.3401 31.3498C14.6008 31.3453 14.8143 31.473 14.8143 31.6312Z" fill="white"/>
<path d="M16.4847 31.3811C16.5159 31.5363 16.3347 31.6957 16.0758 31.7378C15.8213 31.779 15.5856 31.6832 15.5533 31.5293C15.5217 31.3702 15.7062 31.2108 15.9604 31.1696C16.2196 31.13 16.4517 31.2233 16.4847 31.3811Z" fill="white"/>
</svg>
