<svg width="500" height="360" viewBox="0 0 500 360" fill="none" xmlns="http://www.w3.org/2000/svg">
<rect x="1.03306" y="1.03306" width="497.934" height="357.438" rx="19.6281" fill="#C4C4C4" fill-opacity="0.17" stroke="#FFF1F1" stroke-width="2.06612"/>
<path d="M252.066 22.7273L375.528 107.955H128.604L252.066 22.7273Z" fill="url(#paint0_linear_131_57)"/>
<path d="M252.066 35.124L346.899 98.6571H157.232L252.066 35.124Z" fill="#0C1E7F"/>
<rect x="132.231" y="111.57" width="239.669" height="6.19835" fill="url(#paint1_linear_131_57)"/>
<rect x="136.363" y="121.901" width="233.471" height="6.19835" fill="url(#paint2_linear_131_57)"/>
<rect x="136.363" y="278.926" width="237.603" height="10.3306" fill="url(#paint3_linear_131_57)"/>
<rect x="126.033" y="293.388" width="254.132" height="10.3306" fill="url(#paint4_linear_131_57)"/>
<rect x="119.835" y="307.851" width="272.727" height="10.3306" fill="url(#paint5_linear_131_57)"/>
<rect x="144.628" y="146.694" width="30.9917" height="111.57" fill="url(#paint6_linear_131_57)"/>
<rect x="150.826" y="150.826" width="2.06612" height="101.24" rx="1.03306" fill="#FFFCFC"/>
<rect x="159.091" y="150.826" width="2.06612" height="101.24" rx="1.03306" fill="#FFFCFC"/>
<rect x="167.355" y="150.826" width="2.06612" height="101.24" rx="1.03306" fill="#FFFCFC"/>
<rect x="140.496" y="130.165" width="39.2562" height="8.26446" fill="#FF008E"/>
<rect x="140.496" y="266.529" width="39.2562" height="8.26446" fill="#0C1E7F"/>
<rect x="144.628" y="140.496" width="30.9917" height="4.13223" fill="#FF008E"/>
<rect x="144.628" y="260.331" width="30.9917" height="4.13223" fill="#0C1E7F"/>
<rect x="210.743" y="146.694" width="30.9917" height="111.57" fill="url(#paint7_linear_131_57)"/>
<rect x="216.941" y="150.826" width="2.06612" height="101.24" rx="1.03306" fill="#FFFCFC"/>
<rect x="225.206" y="150.826" width="2.06612" height="101.24" rx="1.03306" fill="#FFFCFC"/>
<rect x="233.471" y="150.826" width="2.06612" height="101.24" rx="1.03306" fill="#FFFCFC"/>
<rect x="206.611" y="130.165" width="39.2562" height="8.26446" fill="#FF008E"/>
<rect x="206.611" y="266.529" width="39.2562" height="8.26446" fill="#0C1E7F"/>
<rect x="210.744" y="140.496" width="30.9917" height="4.13223" fill="#FF008E"/>
<rect x="210.744" y="260.331" width="30.9917" height="4.13223" fill="#0C1E7F"/>
<rect x="270.661" y="146.694" width="30.9917" height="111.57" fill="#C4C4C4"/>
<rect x="276.859" y="150.826" width="2.06612" height="101.24" rx="1.03306" fill="#FFFCFC"/>
<rect x="285.124" y="150.826" width="2.06612" height="101.24" rx="1.03306" fill="#FFFCFC"/>
<rect x="293.389" y="150.826" width="2.06612" height="101.24" rx="1.03306" fill="#FFFCFC"/>
<rect x="266.529" y="130.165" width="39.2562" height="8.26446" fill="#C4C4C4"/>
<rect x="266.529" y="266.529" width="39.2562" height="8.26446" fill="#C4C4C4"/>
<rect x="270.661" y="140.496" width="30.9917" height="4.13223" fill="#C4C4C4"/>
<rect x="270.661" y="260.331" width="30.9917" height="4.13223" fill="#C4C4C4"/>
<rect x="270.661" y="146.694" width="30.9917" height="111.57" fill="url(#paint8_linear_131_57)"/>
<rect x="276.859" y="150.826" width="2.06612" height="101.24" rx="1.03306" fill="#FFFCFC"/>
<rect x="285.124" y="150.826" width="2.06612" height="101.24" rx="1.03306" fill="#FFFCFC"/>
<rect x="293.389" y="150.826" width="2.06612" height="101.24" rx="1.03306" fill="#FFFCFC"/>
<rect x="266.529" y="130.165" width="39.2562" height="8.26446" fill="#FF008E"/>
<rect x="266.529" y="266.529" width="39.2562" height="8.26446" fill="#0C1E7F"/>
<rect x="270.661" y="140.496" width="30.9917" height="4.13223" fill="#FF008E"/>
<rect x="270.661" y="260.331" width="30.9917" height="4.13223" fill="#0C1E7F"/>
<rect x="332.645" y="146.694" width="30.9917" height="111.57" fill="url(#paint9_linear_131_57)"/>
<rect x="338.843" y="150.826" width="2.06612" height="101.24" rx="1.03306" fill="#FFFCFC"/>
<rect x="347.107" y="150.826" width="2.06612" height="101.24" rx="1.03306" fill="#FFFCFC"/>
<rect x="355.372" y="150.826" width="2.06612" height="101.24" rx="1.03306" fill="#FFFCFC"/>
<rect x="328.513" y="130.165" width="39.2562" height="8.26446" fill="#FF008E"/>
<rect x="328.513" y="266.529" width="39.2562" height="8.26446" fill="#0C1E7F"/>
<rect x="332.645" y="140.496" width="30.9917" height="4.13223" fill="#FF008E"/>
<rect x="332.645" y="260.331" width="30.9917" height="4.13223" fill="#0C1E7F"/>
<circle cx="475.206" cy="190.083" r="12.3967" fill="#FF008E"/>
<circle cx="411.157" cy="148.76" r="12.3967" fill="#FF008E"/>
<circle cx="22.7277" cy="274.793" r="12.3967" fill="#FF008E"/>
<circle cx="154.958" cy="342.975" r="12.3967" fill="#FF008E"/>
<circle cx="417.356" cy="92.9753" r="12.3967" fill="#612897"/>
<circle cx="68.1819" cy="252.066" r="12.3967" fill="#612897"/>
<circle cx="35.1242" cy="167.355" r="12.3967" fill="#612897"/>
<circle cx="111.571" cy="330.579" r="12.3967" fill="#612897"/>
<circle cx="386.363" cy="179.752" r="12.3967" fill="#D22779"/>
<circle cx="130.165" cy="239.669" r="12.3967" fill="#D22779"/>
<circle cx="450.413" cy="295.455" r="12.3967" fill="#D22779"/>
<circle cx="80.5783" cy="117.769" r="12.3967" fill="#D22779"/>
<circle cx="392.562" cy="233.471" r="12.3967" fill="#0C1E7F"/>
<circle cx="86.7766" cy="179.752" r="12.3967" fill="#0C1E7F"/>
<circle cx="68.1819" cy="303.719" r="12.3967" fill="#0C1E7F"/>
<circle cx="332.645" cy="340.909" r="12.3967" fill="#0C1E7F"/>
<defs>
<linearGradient id="paint0_linear_131_57" x1="394.628" y1="68.6553" x2="109.609" y2="74.6148" gradientUnits="userSpaceOnUse">
<stop offset="0.0416652" stop-color="#FF008E"/>
<stop offset="0.832538" stop-color="#0C1E7F"/>
</linearGradient>
<linearGradient id="paint1_linear_131_57" x1="371.901" y1="114.075" x2="154.76" y2="184.043" gradientUnits="userSpaceOnUse">
<stop offset="0.0416652" stop-color="#FF008E"/>
<stop offset="0.832538" stop-color="#0C1E7F"/>
</linearGradient>
<linearGradient id="paint2_linear_131_57" x1="369.834" y1="124.406" x2="157.288" y2="191.122" gradientUnits="userSpaceOnUse">
<stop offset="0.0416652" stop-color="#FF008E"/>
<stop offset="0.832538" stop-color="#0C1E7F"/>
</linearGradient>
<linearGradient id="paint3_linear_131_57" x1="373.967" y1="283.101" x2="144.767" y2="327.031" gradientUnits="userSpaceOnUse">
<stop offset="0.0416652" stop-color="#FF008E"/>
<stop offset="0.832538" stop-color="#0C1E7F"/>
</linearGradient>
<linearGradient id="paint4_linear_131_57" x1="380.165" y1="297.564" x2="136.265" y2="347.563" gradientUnits="userSpaceOnUse">
<stop offset="0.0416652" stop-color="#FF008E"/>
<stop offset="0.832538" stop-color="#0C1E7F"/>
</linearGradient>
<linearGradient id="paint5_linear_131_57" x1="392.562" y1="312.027" x2="132.408" y2="369.261" gradientUnits="userSpaceOnUse">
<stop offset="0.0416652" stop-color="#FF008E"/>
<stop offset="0.832538" stop-color="#0C1E7F"/>
</linearGradient>
<linearGradient id="paint6_linear_131_57" x1="160.124" y1="146.694" x2="160.124" y2="258.264" gradientUnits="userSpaceOnUse">
<stop offset="0.0416652" stop-color="#FF008E"/>
<stop offset="0.832538" stop-color="#0C1E7F"/>
</linearGradient>
<linearGradient id="paint7_linear_131_57" x1="226.239" y1="146.694" x2="226.239" y2="258.264" gradientUnits="userSpaceOnUse">
<stop offset="0.0416652" stop-color="#FF008E"/>
<stop offset="0.832538" stop-color="#0C1E7F"/>
</linearGradient>
<linearGradient id="paint8_linear_131_57" x1="286.157" y1="146.694" x2="286.157" y2="258.264" gradientUnits="userSpaceOnUse">
<stop offset="0.0416652" stop-color="#FF008E"/>
<stop offset="0.832538" stop-color="#0C1E7F"/>
</linearGradient>
<linearGradient id="paint9_linear_131_57" x1="348.14" y1="146.694" x2="348.14" y2="258.264" gradientUnits="userSpaceOnUse">
<stop offset="0.0416652" stop-color="#FF008E"/>
<stop offset="0.832538" stop-color="#0C1E7F"/>
</linearGradient>
</defs>
</svg>
