<svg width="520" height="690" viewBox="0 0 520 690" fill="none" xmlns="http://www.w3.org/2000/svg">
<path d="M373.071 141.679C444.241 206.704 510 233.829 510 233.829C510 233.829 476.617 383.723 434.229 464.205C381.94 563.485 263.202 677.826 263.202 677.826C263.202 677.826 133.217 565.793 81.3513 464.205C39.1924 381.63 10 233.829 10 233.829C10 233.829 92.2659 206.605 159.378 141.679C226.489 76.7522 263.202 16 263.202 16C263.202 16 301.9 76.6529 373.071 141.679Z" stroke="url(#paint0_linear_123_52)" stroke-width="16.5975"/>
<path d="M360.304 163.658C424.092 220.734 483.029 244.542 483.029 244.542C483.029 244.542 453.109 376.11 415.118 446.753C368.253 533.896 261.833 634.257 261.833 634.257C261.833 634.257 145.332 535.921 98.8462 446.753C61.0606 374.273 34.8965 244.542 34.8965 244.542C34.8965 244.542 108.629 220.647 168.778 163.658C228.928 106.669 261.833 53.3444 261.833 53.3444C261.833 53.3444 296.516 106.582 360.304 163.658Z" stroke="url(#paint1_linear_123_52)" stroke-width="16.5975"/>
<path d="M347.168 189.393C402.687 238.315 453.984 258.722 453.984 258.722C453.984 258.722 427.942 371.495 394.876 432.046C354.086 506.739 261.461 592.763 261.461 592.763C261.461 592.763 160.062 508.475 119.602 432.046C86.7149 369.92 63.9424 258.722 63.9424 258.722C63.9424 258.722 128.117 238.24 180.469 189.393C232.822 140.545 261.461 94.8382 261.461 94.8382C261.461 94.8382 291.648 140.47 347.168 189.393Z" stroke="url(#paint2_linear_123_52)" stroke-width="16.5975"/>
<defs>
<linearGradient id="paint0_linear_123_52" x1="68.3618" y1="147.961" x2="417.58" y2="594.897" gradientUnits="userSpaceOnUse">
<stop stop-color="#04005E"/>
<stop offset="0.0001" stop-color="#341677"/>
<stop offset="0.53125" stop-color="#FF2079"/>
<stop offset="1" stop-color="#E92EFB"/>
</linearGradient>
<linearGradient id="paint1_linear_123_52" x1="87.2042" y1="169.173" x2="392.121" y2="567.646" gradientUnits="userSpaceOnUse">
<stop stop-color="#04005E"/>
<stop offset="0.0001" stop-color="#341677"/>
<stop offset="0.53125" stop-color="#FF2079"/>
<stop offset="1" stop-color="#E92EFB"/>
</linearGradient>
<linearGradient id="paint2_linear_123_52" x1="109.469" y1="194.119" x2="369.755" y2="539.516" gradientUnits="userSpaceOnUse">
<stop stop-color="#04005E"/>
<stop offset="0.0001" stop-color="#341677"/>
<stop offset="0.53125" stop-color="#FF2079"/>
<stop offset="1" stop-color="#E92EFB"/>
</linearGradient>
</defs>
</svg>
