<svg width="520" height="892" viewBox="0 0 520 892" fill="none" xmlns="http://www.w3.org/2000/svg">
<path d="M373.071 141.679C444.241 206.704 510 233.829 510 233.829C510 233.829 476.617 383.723 434.229 464.205C381.94 563.485 263.202 677.826 263.202 677.826C263.202 677.826 133.217 565.793 81.3513 464.205C39.1924 381.63 10 233.829 10 233.829C10 233.829 92.2659 206.605 159.378 141.679C226.489 76.7522 263.202 16 263.202 16C263.202 16 301.9 76.6529 373.071 141.679Z" stroke="url(#paint0_linear_119_6)" stroke-width="16.5975"/>
<path d="M360.304 163.658C424.092 220.734 483.029 244.542 483.029 244.542C483.029 244.542 453.109 376.11 415.118 446.753C368.253 533.896 261.833 634.257 261.833 634.257C261.833 634.257 145.331 535.921 98.8459 446.753C61.0604 374.273 34.8962 244.542 34.8962 244.542C34.8962 244.542 108.628 220.647 168.778 163.658C228.928 106.669 261.833 53.3444 261.833 53.3444C261.833 53.3444 296.516 106.582 360.304 163.658Z" stroke="url(#paint1_linear_119_6)" stroke-width="16.5975"/>
<path d="M347.167 189.393C402.686 238.315 453.983 258.722 453.983 258.722C453.983 258.722 427.942 371.495 394.876 432.046C354.086 506.739 261.461 592.763 261.461 592.763C261.461 592.763 160.061 508.475 119.602 432.046C86.7144 369.92 63.9419 258.722 63.9419 258.722C63.9419 258.722 128.116 238.24 180.469 189.393C232.821 140.545 261.461 94.8382 261.461 94.8382C261.461 94.8382 291.648 140.47 347.167 189.393Z" stroke="url(#paint2_linear_119_6)" stroke-width="16.5975"/>
<path d="M146.049 829.67L152.424 828.526C152.424 834.519 155.53 839.423 161.741 843.237C165.446 845.417 169.042 846.506 172.53 846.506V852.718C163.485 852.718 156.238 849.285 150.79 842.42C147.629 838.279 146.049 834.029 146.049 829.67ZM146.703 792.238C146.703 782.321 151.062 775.129 159.78 770.661C163.812 768.482 167.953 767.392 172.203 767.392V773.604C167.299 773.604 162.776 775.674 158.636 779.815C155.039 783.52 153.241 787.661 153.241 792.238C153.241 796.27 156.02 799.376 161.578 801.555C163.43 802.209 171.004 804.116 184.299 807.276C186.042 807.712 187.622 808.093 189.039 808.42C201.135 811.69 207.237 817.846 207.346 826.891C207.346 836.372 203.369 843.51 195.414 848.304C190.619 851.247 185.225 852.718 179.231 852.718V846.67C185.334 846.67 190.673 844.49 195.25 840.131C198.955 836.317 200.808 831.904 200.808 826.891C200.808 821.77 196.34 817.792 187.404 814.959C185.988 814.523 178.523 812.725 165.01 809.565C164.248 809.347 163.539 809.183 162.885 809.074C152.206 806.459 146.812 800.847 146.703 792.238ZM179.068 773.767V767.392C188.113 767.392 195.359 770.77 200.808 777.527C204.186 781.777 205.875 786.19 205.875 790.767L199.5 791.748C199.5 785.1 195.85 779.924 188.548 776.219C185.061 774.584 181.901 773.767 179.068 773.767ZM216.827 829.507V767.883H223.365V828.689C223.365 833.157 225.708 837.353 230.394 841.276C234.535 844.545 239.057 846.179 243.961 846.179V852.718C233.718 852.718 225.926 848.686 220.586 840.622C218.08 836.808 216.827 833.103 216.827 829.507ZM250.826 852.718V846.179C257.909 846.179 263.576 843.401 267.826 837.843C270.223 834.792 271.422 831.74 271.422 828.689V767.883H277.96V829.507C277.96 834.41 275.726 839.26 271.259 844.054C265.81 849.721 258.999 852.609 250.826 852.718ZM291.037 851.9V767.556H297.575V781.45C299.428 776.873 302.861 773.222 307.873 770.498C311.36 768.645 315.011 767.719 318.825 767.719H318.988L317.354 773.767C312.123 773.767 307.383 777.036 303.133 783.575C299.428 789.35 297.575 795.344 297.575 801.555V851.9H291.037ZM328.796 828.853V790.276C328.905 785.373 331.193 780.578 335.661 775.892C341.11 770.335 347.703 767.556 355.44 767.556V773.767C348.792 773.767 343.289 776.709 338.93 782.594C336.533 785.863 335.334 788.86 335.334 791.584V805.315H382.901V791.584C382.901 785.918 380.122 781.177 374.564 777.363C370.75 774.748 366.827 773.44 362.795 773.44V767.556C370.097 767.556 376.58 770.226 382.247 775.565C386.933 780.033 389.33 784.882 389.439 790.113V811.526H335.334V828.853C335.334 832.34 337.459 835.99 341.709 839.804C346.068 843.618 350.699 845.58 355.603 845.689V851.9C346.123 851.9 338.604 848.032 333.046 840.295C330.213 836.154 328.796 832.34 328.796 828.853ZM362.795 851.9V845.199C370.097 845.199 375.981 842.038 380.449 835.718C381.866 833.756 382.792 831.849 383.228 829.997L389.603 832.285C387.205 840.458 382.247 846.179 374.728 849.449C371.023 851.083 367.045 851.9 362.795 851.9Z" fill="white"/>
<defs>
<linearGradient id="paint0_linear_119_6" x1="68.3618" y1="147.961" x2="417.58" y2="594.897" gradientUnits="userSpaceOnUse">
<stop stop-color="#04005E"/>
<stop offset="0.0001" stop-color="#341677"/>
<stop offset="0.53125" stop-color="#FF2079"/>
<stop offset="1" stop-color="#E92EFB"/>
</linearGradient>
<linearGradient id="paint1_linear_119_6" x1="87.204" y1="169.173" x2="392.121" y2="567.646" gradientUnits="userSpaceOnUse">
<stop stop-color="#04005E"/>
<stop offset="0.0001" stop-color="#341677"/>
<stop offset="0.53125" stop-color="#FF2079"/>
<stop offset="1" stop-color="#E92EFB"/>
</linearGradient>
<linearGradient id="paint2_linear_119_6" x1="109.469" y1="194.119" x2="369.754" y2="539.516" gradientUnits="userSpaceOnUse">
<stop stop-color="#04005E"/>
<stop offset="0.0001" stop-color="#341677"/>
<stop offset="0.53125" stop-color="#FF2079"/>
<stop offset="1" stop-color="#E92EFB"/>
</linearGradient>
</defs>
</svg>
