<svg width="122" height="142" viewBox="0 0 122 142" fill="none" xmlns="http://www.w3.org/2000/svg">
<path d="M87.6846 29.0159C104.481 42.4764 120 48.0912 120 48.0912C120 48.0912 112.122 79.1197 102.118 95.7798C89.7778 116.331 61.7557 140 61.7557 140C61.7557 140 31.0792 116.809 18.8389 95.7798C8.8894 78.6865 2 48.0912 2 48.0912C2 48.0912 21.4148 42.4558 37.2531 29.0159C53.0915 15.5759 61.7557 3 61.7557 3C61.7557 3 70.8883 15.5553 87.6846 29.0159Z" stroke="url(#paint0_linear_143_9)" stroke-width="2.48963"/>
<path d="M84.6712 33.5655C99.7252 45.3804 113.634 50.3088 113.634 50.3088C113.634 50.3088 106.573 77.5438 97.6073 92.1671C86.5472 110.206 61.432 130.981 61.432 130.981C61.432 130.981 33.9377 110.625 22.9671 92.1671C14.0497 77.1635 7.875 50.3088 7.875 50.3088C7.875 50.3088 25.2758 45.3624 39.4712 33.5655C53.6665 21.7687 61.432 10.7303 61.432 10.7303C61.432 10.7303 69.6172 21.7506 84.6712 33.5655Z" stroke="url(#paint1_linear_143_9)" stroke-width="2.48963"/>
<path d="M81.5706 38.8928C94.6732 49.0198 106.779 53.2441 106.779 53.2441C106.779 53.2441 100.634 76.5884 92.8298 89.1227C83.2035 104.585 61.3439 122.392 61.3439 122.392C61.3439 122.392 37.4137 104.944 27.8652 89.1227C20.1038 76.2625 14.7295 53.2441 14.7295 53.2441C14.7295 53.2441 29.8746 49.0043 42.2298 38.8928C54.5851 28.7812 61.3439 19.3197 61.3439 19.3197C61.3439 19.3197 68.4681 28.7657 81.5706 38.8928Z" stroke="url(#paint2_linear_143_9)" stroke-width="2.48963"/>
<path d="M35.9375 73.0625L37.0938 72.6562C37.2396 73.4062 37.5 74.0729 37.875 74.6562C38.2708 75.2188 38.6771 75.6354 39.0938 75.9062C39.5312 76.1771 39.9583 76.3958 40.375 76.5625C40.7917 76.7292 41.1354 76.8333 41.4062 76.875L41.8125 76.9062V78.0938C39.9167 78.0938 38.3438 77.3021 37.0938 75.7188C36.3438 74.7604 35.9583 73.875 35.9375 73.0625ZM36.1875 61.9375C36.1875 59.7292 37.1667 58.0625 39.125 56.9375C40.0833 56.3958 40.9792 56.125 41.8125 56.125V57.3125C41.0625 57.3125 40.25 57.6354 39.375 58.2812C38.1042 59.2604 37.4583 60.5417 37.4375 62.125C37.4375 63.8125 38.6771 64.9896 41.1562 65.6562C41.3854 65.7188 42.5938 65.9583 44.7812 66.375C45.1562 66.4583 45.4688 66.5312 45.7188 66.5938C47.6146 67.1146 48.8229 68.0417 49.3438 69.375C49.5938 70.0417 49.7188 70.8021 49.7188 71.6562C49.7188 73.4062 49.0312 74.9375 47.6562 76.25C46.3646 77.4792 44.8854 78.0938 43.2188 78.0938V76.9062C44.1771 76.9062 45.2083 76.4688 46.3125 75.5938C47.7292 74.4271 48.4479 73.0521 48.4688 71.4688C48.4688 69.5938 47.1979 68.3229 44.6562 67.6562C44.4271 67.6146 43.2812 67.4062 41.2188 67.0312C40.6771 66.9479 40.2812 66.8542 40.0312 66.75C38.3438 66.125 37.25 65.3438 36.75 64.4062C36.375 63.7396 36.1875 62.9167 36.1875 61.9375ZM43.2188 57.3125V56.125C45.1146 56.125 46.6771 57.0104 47.9062 58.7812C48.4062 59.4896 48.7188 60.1354 48.8438 60.7188L47.6562 61.0938C47.4688 60.4062 47.1875 59.8125 46.8125 59.3125C46.4375 58.7917 46.0521 58.4167 45.6562 58.1875C45.2604 57.9375 44.875 57.7396 44.5 57.5938C44.125 57.4479 43.8125 57.3646 43.5625 57.3438L43.2188 57.3125ZM52.3237 73.7188V61.9375H53.5737V73.5625C53.5737 74.4167 54.0217 75.2188 54.9175 75.9688C55.7092 76.5938 56.5737 76.9062 57.5112 76.9062V78.1562C55.5529 78.1562 54.0633 77.3854 53.0425 75.8438C52.5633 75.1146 52.3237 74.4062 52.3237 73.7188ZM58.8237 78.1562V76.9062C60.1779 76.9062 61.2612 76.375 62.0737 75.3125C62.5321 74.7292 62.7612 74.1458 62.7612 73.5625V61.9375H64.0112V73.7188C64.0112 74.6562 63.5842 75.5833 62.73 76.5C61.6883 77.5833 60.3862 78.1354 58.8237 78.1562ZM66.9912 78V61.875H68.2412V64.5312C68.5954 63.6562 69.2517 62.9583 70.21 62.4375C70.8767 62.0833 71.5746 61.9062 72.3037 61.9062H72.335L72.0225 63.0625C71.0225 63.0625 70.1162 63.6875 69.3037 64.9375C68.5954 66.0417 68.2412 67.1875 68.2412 68.375V78H66.9912ZM74.69 73.5938V66.2188C74.7108 65.2812 75.1483 64.3646 76.0025 63.4688C77.0442 62.4062 78.3046 61.875 79.7837 61.875V63.0625C78.5129 63.0625 77.4608 63.625 76.6275 64.75C76.1692 65.375 75.94 65.9479 75.94 66.4688V69.0938H85.0337V66.4688C85.0337 65.3854 84.5025 64.4792 83.44 63.75C82.7108 63.25 81.9608 63 81.19 63V61.875C82.5858 61.875 83.8254 62.3854 84.9087 63.4062C85.8046 64.2604 86.2629 65.1875 86.2837 66.1875V70.2812H75.94V73.5938C75.94 74.2604 76.3462 74.9583 77.1587 75.6875C77.9921 76.4167 78.8775 76.7917 79.815 76.8125V78C78.0025 78 76.565 77.2604 75.5025 75.7812C74.9608 74.9896 74.69 74.2604 74.69 73.5938ZM81.19 78V76.7188C82.5858 76.7188 83.7108 76.1146 84.565 74.9062C84.8358 74.5312 85.0129 74.1667 85.0962 73.8125L86.315 74.25C85.8567 75.8125 84.9087 76.9062 83.4712 77.5312C82.7629 77.8438 82.0025 78 81.19 78Z" fill="white"/>
<defs>
<linearGradient id="paint0_linear_143_9" x1="15.7734" y1="30.3164" x2="85.2556" y2="131.697" gradientUnits="userSpaceOnUse">
<stop stop-color="#04005E"/>
<stop offset="0.0001" stop-color="#341677"/>
<stop offset="0.0002" stop-color="#FF2079"/>
<stop offset="1" stop-color="#E92EFB"/>
</linearGradient>
<linearGradient id="paint1_linear_143_9" x1="20.2196" y1="34.7071" x2="80.7379" y2="124.872" gradientUnits="userSpaceOnUse">
<stop stop-color="#04005E"/>
<stop offset="0.0001" stop-color="#341677"/>
<stop offset="0.0002" stop-color="#FF2079"/>
<stop offset="1" stop-color="#E92EFB"/>
</linearGradient>
<linearGradient id="paint2_linear_143_9" x1="25.4739" y1="39.8712" x2="77.0415" y2="117.887" gradientUnits="userSpaceOnUse">
<stop stop-color="#04005E"/>
<stop offset="0.0001" stop-color="#341677"/>
<stop offset="0.0002" stop-color="#FF2079"/>
<stop offset="1" stop-color="#E92EFB"/>
</linearGradient>
</defs>
</svg>
