<svg width="44" height="38" viewBox="0 0 44 38" fill="none" xmlns="http://www.w3.org/2000/svg">
<path fill-rule="evenodd" clip-rule="evenodd" d="M21.9683 0C9.83552 0 0 8.50659 0 19C0 29.4934 9.83552 38 21.9683 38C34.101 38 43.9365 29.4934 43.9365 19C43.9365 8.50659 34.101 0 21.9683 0ZM21.3564 16.1009L21.3103 15.4434C21.172 13.7395 22.386 12.1831 24.3067 11.5793C25.0136 11.3646 26.2122 11.3378 26.9959 11.5256C27.3032 11.6061 27.8871 11.8745 28.302 12.116L29.0549 12.5587L29.8847 12.3306C30.3457 12.2099 30.9604 12.0086 31.237 11.8745C31.4982 11.7537 31.7287 11.6866 31.7287 11.7269C31.7287 11.955 31.1601 12.7332 30.6838 13.1625C30.0384 13.7663 30.2228 13.82 31.5289 13.4174C32.3126 13.1893 32.328 13.1893 32.1743 13.4443C32.0821 13.5784 31.6058 14.048 31.0987 14.4774C30.2381 15.2153 30.1921 15.2958 30.1921 15.913C30.1921 16.8657 29.6696 18.8514 29.1471 19.9382C28.1791 21.9776 26.1046 24.0841 24.0301 25.1441C21.1105 26.6334 17.2229 27.0091 13.9498 26.1369C12.8588 25.8418 10.9841 25.0904 10.9841 24.9562C10.9841 24.916 11.5527 24.8623 12.2442 24.8489C13.6886 24.8221 15.133 24.4732 16.3623 23.856L17.1921 23.4267L16.2394 23.1449C14.8872 22.7424 13.6732 21.8166 13.3659 20.9445C13.2737 20.6627 13.3044 20.6493 14.165 20.6493L15.0562 20.6359L14.3033 20.3273C13.412 19.9382 12.5976 19.2808 12.1981 18.6099C11.9061 18.1269 11.5373 16.9059 11.6449 16.812C11.6756 16.7717 11.9983 16.8522 12.3671 16.9596C13.4274 17.295 13.5657 17.2145 12.951 16.651C11.7985 15.6313 11.4451 14.1151 11.9983 12.6795L12.2595 12.0355L13.2737 12.9076C15.3482 14.6652 17.7914 15.7118 20.5881 16.0204L21.3564 16.1009Z" fill="white"/>
</svg>
