<svg width="500" height="360" viewBox="0 0 500 360" fill="none" xmlns="http://www.w3.org/2000/svg">
<rect x="1.03306" y="1.03306" width="497.934" height="357.438" rx="19.6281" fill="#C4C4C4" fill-opacity="0.28" stroke="white" stroke-width="2.06612"/>
<path d="M263.723 153.001C263.936 153.189 264.263 153.167 264.451 152.953L267.528 149.455C267.717 149.24 267.697 148.914 267.483 148.726C267.27 148.538 266.943 148.559 266.754 148.774L264.019 151.883L260.923 149.16C260.71 148.972 260.383 148.993 260.194 149.208C260.006 149.422 260.026 149.749 260.24 149.937L263.723 153.001ZM257.41 53.4098L263.549 152.646L264.58 152.578L258.441 53.3416L257.41 53.4098Z" fill="#0C1E7F"/>
<path d="M270.232 156.328C270.409 156.553 270.733 156.593 270.957 156.418L274.598 153.557C274.821 153.382 274.859 153.057 274.682 152.832C274.505 152.607 274.181 152.566 273.957 152.742L270.721 155.285L268.158 152.022C267.981 151.797 267.656 151.757 267.433 151.932C267.21 152.108 267.172 152.433 267.349 152.658L270.232 156.328ZM275.053 113.472L270.124 155.947L271.149 156.074L276.078 113.599L275.053 113.472Z" fill="#612897"/>
<path d="M275.114 157.949C275.249 158.203 275.56 158.302 275.81 158.17L279.878 156.012C280.127 155.879 280.22 155.566 280.086 155.311C279.951 155.057 279.639 154.958 279.389 155.091L275.773 157.009L273.819 153.324C273.684 153.07 273.372 152.971 273.122 153.103C272.873 153.236 272.78 153.549 272.915 153.804L275.114 157.949ZM312.861 30.1278L275.073 157.553L276.058 157.865L313.846 30.4401L312.861 30.1278Z" fill="#612897"/>
<path d="M245.906 159.926C246.183 159.972 246.446 159.777 246.493 159.491L247.263 154.832C247.311 154.546 247.125 154.278 246.848 154.232C246.571 154.186 246.308 154.381 246.261 154.666L245.576 158.808L241.564 158.144C241.287 158.098 241.024 158.293 240.977 158.579C240.93 158.865 241.116 159.134 241.393 159.179L245.906 159.926ZM150.285 22.0964L245.576 159.715L246.407 159.101L151.115 21.4817L150.285 22.0964Z" fill="#612897"/>
<path d="M257.243 156.468C257.492 156.603 257.805 156.508 257.942 156.255L260.188 152.137C260.326 151.884 260.236 151.57 259.988 151.434C259.74 151.299 259.427 151.394 259.289 151.647L257.293 155.308L253.698 153.347C253.45 153.212 253.137 153.307 252.999 153.56C252.862 153.813 252.951 154.127 253.199 154.262L257.243 156.468ZM240.569 98.3944L256.999 156.16L257.987 155.86L241.558 98.0938L240.569 98.3944Z" fill="#612897"/>
<rect x="171.447" y="277.207" width="12.5868" height="46.5868" fill="url(#paint0_linear_131_56)" stroke="#B0B0B0" stroke-width="0.413223"/>
<rect x="184.447" y="271.207" width="11.5868" height="52.5868" fill="url(#paint1_linear_131_56)" stroke="#B0B0B0" stroke-width="0.413223"/>
<rect x="196.447" y="265.207" width="11.5868" height="58.5868" fill="url(#paint2_linear_131_56)" stroke="#B0B0B0" stroke-width="0.413223"/>
<rect x="208.447" y="229.207" width="12.5868" height="94.5868" fill="url(#paint3_linear_131_56)" stroke="#B0B0B0" stroke-width="0.413223"/>
<rect x="221.447" y="215.207" width="11.5868" height="108.587" fill="url(#paint4_linear_131_56)" stroke="#B0B0B0" stroke-width="0.413223"/>
<rect x="233.447" y="203.207" width="11.5868" height="120.587" fill="url(#paint5_linear_131_56)" stroke="#B0B0B0" stroke-width="0.413223"/>
<rect x="245.447" y="191.207" width="12.5868" height="132.587" fill="url(#paint6_linear_131_56)" stroke="#B0B0B0" stroke-width="0.413223"/>
<rect x="258.653" y="176.413" width="11.1736" height="147.174" fill="url(#paint7_linear_131_56)" stroke="white" stroke-width="0.826446"/>
<rect x="270.447" y="218.207" width="11.5868" height="105.587" fill="url(#paint8_linear_131_56)" stroke="#B0B0B0" stroke-width="0.413223"/>
<rect x="282.447" y="283.207" width="12.5868" height="40.5868" fill="url(#paint9_linear_131_56)" stroke="#B0B0B0" stroke-width="0.413223"/>
<rect x="295.447" y="297.207" width="11.5868" height="26.5868" fill="url(#paint10_linear_131_56)" stroke="#B0B0B0" stroke-width="0.413223"/>
<rect x="307.447" y="309.207" width="11.5868" height="14.5868" fill="url(#paint11_linear_131_56)" stroke="#B0B0B0" stroke-width="0.413223"/>
<rect x="319.447" y="315.207" width="12.5868" height="8.58678" fill="url(#paint12_linear_131_56)" stroke="#B0B0B0" stroke-width="0.413223"/>
<rect x="159.447" y="306.207" width="11.5868" height="17.5868" fill="url(#paint13_linear_131_56)" stroke="#B0B0B0" stroke-width="0.413223"/>
<rect x="147.447" y="315.207" width="11.5868" height="8.58678" fill="url(#paint14_linear_131_56)" stroke="#B0B0B0" stroke-width="0.413223"/>
<path d="M215.822 345L223.095 333.43H224.334L217.062 345H215.822ZM222.582 344.926C222.241 344.926 221.918 344.857 221.615 344.719C221.318 344.576 221.075 344.344 220.888 344.025C220.701 343.7 220.607 343.27 220.607 342.736C220.607 342.207 220.701 341.782 220.888 341.463C221.075 341.143 221.318 340.915 221.615 340.777C221.918 340.634 222.241 340.562 222.582 340.562C222.924 340.562 223.246 340.634 223.549 340.777C223.852 340.915 224.097 341.143 224.285 341.463C224.472 341.782 224.566 342.207 224.566 342.736C224.566 343.27 224.472 343.7 224.285 344.025C224.097 344.344 223.852 344.576 223.549 344.719C223.246 344.857 222.924 344.926 222.582 344.926ZM222.582 344.033C222.758 344.033 222.918 343.994 223.062 343.917C223.205 343.835 223.318 343.7 223.4 343.512C223.483 343.325 223.524 343.066 223.524 342.736C223.524 342.41 223.483 342.154 223.4 341.967C223.318 341.78 223.205 341.647 223.062 341.57C222.918 341.493 222.758 341.455 222.582 341.455C222.411 341.455 222.254 341.493 222.111 341.57C221.968 341.647 221.852 341.78 221.764 341.967C221.681 342.154 221.64 342.41 221.64 342.736C221.64 343.066 221.681 343.325 221.764 343.512C221.852 343.7 221.968 343.835 222.111 343.917C222.254 343.994 222.411 344.033 222.582 344.033ZM217.632 337.983C217.296 337.983 216.976 337.915 216.673 337.777C216.37 337.634 216.125 337.402 215.938 337.083C215.75 336.758 215.657 336.328 215.657 335.793C215.657 335.264 215.75 334.84 215.938 334.521C216.125 334.201 216.37 333.972 216.673 333.835C216.976 333.691 217.296 333.62 217.632 333.62C217.973 333.62 218.296 333.691 218.599 333.835C218.902 333.972 219.147 334.201 219.334 334.521C219.522 334.84 219.615 335.264 219.615 335.793C219.615 336.328 219.522 336.758 219.334 337.083C219.147 337.402 218.902 337.634 218.599 337.777C218.296 337.915 217.973 337.983 217.632 337.983ZM217.632 337.091C217.808 337.091 217.968 337.052 218.111 336.975C218.254 336.893 218.367 336.758 218.45 336.57C218.538 336.383 218.582 336.124 218.582 335.793C218.582 335.468 218.538 335.212 218.45 335.025C218.367 334.837 218.254 334.705 218.111 334.628C217.968 334.551 217.808 334.512 217.632 334.512C217.461 334.512 217.304 334.551 217.161 334.628C217.017 334.705 216.904 334.837 216.822 335.025C216.739 335.212 216.698 335.468 216.698 335.793C216.698 336.124 216.739 336.383 216.822 336.57C216.904 336.758 217.017 336.893 217.161 336.975C217.304 337.052 217.461 337.091 217.632 337.091ZM239.332 345.182C238.969 345.182 238.594 345.132 238.208 345.033C237.828 344.939 237.462 344.788 237.109 344.579C236.757 344.369 236.437 344.096 236.151 343.76C235.87 343.419 235.646 343.008 235.481 342.529C235.321 342.05 235.242 341.49 235.242 340.851C235.242 340.218 235.321 339.661 235.481 339.182C235.646 338.702 235.87 338.295 236.151 337.959C236.437 337.623 236.757 337.35 237.109 337.14C237.462 336.931 237.828 336.78 238.208 336.686C238.594 336.587 238.969 336.537 239.332 336.537C239.696 336.537 240.068 336.587 240.448 336.686C240.834 336.78 241.203 336.931 241.556 337.14C241.914 337.35 242.233 337.623 242.514 337.959C242.795 338.295 243.018 338.702 243.184 339.182C243.349 339.661 243.432 340.218 243.432 340.851C243.432 341.49 243.349 342.05 243.184 342.529C243.018 343.008 242.795 343.419 242.514 343.76C242.233 344.096 241.914 344.369 241.556 344.579C241.203 344.788 240.834 344.939 240.448 345.033C240.068 345.132 239.696 345.182 239.332 345.182ZM239.332 343.917C239.608 343.917 239.886 343.868 240.167 343.769C240.448 343.664 240.707 343.493 240.944 343.256C241.186 343.019 241.382 342.705 241.531 342.314C241.685 341.917 241.762 341.43 241.762 340.851C241.762 340.278 241.685 339.799 241.531 339.413C241.382 339.022 241.186 338.708 240.944 338.471C240.707 338.234 240.448 338.063 240.167 337.959C239.886 337.854 239.608 337.802 239.332 337.802C239.062 337.802 238.784 337.854 238.498 337.959C238.217 338.063 237.955 338.234 237.713 338.471C237.476 338.708 237.283 339.022 237.134 339.413C236.985 339.799 236.911 340.278 236.911 340.851C236.911 341.43 236.985 341.917 237.134 342.314C237.283 342.705 237.476 343.019 237.713 343.256C237.955 343.493 238.217 343.664 238.498 343.769C238.784 343.868 239.062 343.917 239.332 343.917ZM247.042 345V335.702C247.042 335.063 247.142 334.534 247.34 334.116C247.538 333.697 247.8 333.366 248.125 333.124C248.456 332.882 248.817 332.711 249.208 332.612C249.599 332.507 249.99 332.455 250.381 332.455C250.767 332.455 251.089 332.488 251.348 332.554C251.613 332.62 251.817 332.694 251.96 332.777V334.058C251.822 333.975 251.648 333.898 251.439 333.826C251.23 333.749 250.949 333.711 250.596 333.711C250.365 333.711 250.133 333.741 249.902 333.802C249.676 333.857 249.469 333.961 249.282 334.116C249.1 334.264 248.954 334.485 248.844 334.777C248.734 335.069 248.679 335.455 248.679 335.934V345H247.042ZM244.885 337.992V336.736H251.844V337.992H244.885ZM265.356 345V334.686H261.976V333.43H270.373V334.686H266.993V345H265.356ZM275.47 345L272.479 333.43H274.165L276.768 343.744H276.834L279.429 333.43H281.123L278.131 345H275.47ZM283.568 345V333.43H285.212V343.744H289.692V345H283.568Z" fill="white"/>
<path d="M127.643 296.53L117.871 299.161L117.856 297.733L126.567 295.442L126.567 295.386L117.808 293.274L117.792 291.839L127.619 294.276L127.643 296.53ZM127.693 286.888C127.697 287.196 127.658 287.514 127.578 287.841C127.502 288.164 127.377 288.476 127.203 288.776C127.029 289.077 126.8 289.349 126.518 289.595C126.232 289.836 125.886 290.028 125.482 290.172C125.077 290.311 124.604 290.384 124.063 290.389C123.526 290.394 123.054 290.331 122.647 290.2C122.239 290.064 121.892 289.879 121.605 289.643C121.317 289.403 121.083 289.135 120.903 288.838C120.722 288.541 120.591 288.232 120.508 287.911C120.42 287.585 120.375 287.268 120.372 286.96C120.368 286.652 120.407 286.337 120.487 286.014C120.563 285.687 120.688 285.373 120.862 285.072C121.036 284.767 121.264 284.494 121.547 284.254C121.829 284.013 122.172 283.82 122.576 283.676C122.981 283.532 123.451 283.458 123.988 283.453C124.529 283.447 125.004 283.513 125.411 283.649C125.819 283.785 126.168 283.97 126.46 284.205C126.748 284.44 126.981 284.709 127.162 285.01C127.343 285.307 127.474 285.619 127.557 285.944C127.645 286.266 127.69 286.58 127.693 286.888ZM126.622 286.899C126.62 286.665 126.575 286.43 126.489 286.193C126.397 285.956 126.25 285.738 126.048 285.539C125.845 285.336 125.577 285.173 125.244 285.05C124.907 284.923 124.493 284.862 124.003 284.866C123.518 284.871 123.113 284.941 122.787 285.074C122.457 285.204 122.193 285.372 121.995 285.579C121.796 285.782 121.654 286.003 121.568 286.242C121.482 286.48 121.44 286.716 121.443 286.95C121.445 287.178 121.492 287.414 121.583 287.655C121.674 287.893 121.821 288.113 122.024 288.316C122.227 288.515 122.495 288.676 122.828 288.798C123.156 288.921 123.562 288.98 124.048 288.975C124.538 288.97 124.95 288.903 125.284 288.774C125.614 288.645 125.879 288.479 126.077 288.276C126.276 288.069 126.418 287.846 126.504 287.607C126.585 287.363 126.625 287.127 126.622 286.899ZM125.452 279.673L118.243 279.745L118.228 278.352L125.395 278.281C125.703 278.278 125.946 278.234 126.122 278.148C126.298 278.057 126.425 277.937 126.503 277.787C126.576 277.637 126.612 277.469 126.61 277.282C126.608 277.091 126.568 276.914 126.492 276.751C126.416 276.588 126.286 276.459 126.103 276.363C125.92 276.267 125.665 276.22 125.338 276.223L125.326 275.082C125.737 275.078 126.085 275.14 126.371 275.268C126.652 275.396 126.881 275.571 127.056 275.793C127.231 276.011 127.359 276.262 127.442 276.546C127.524 276.825 127.567 277.119 127.57 277.426C127.574 277.744 127.54 278.038 127.468 278.31C127.396 278.576 127.277 278.811 127.111 279.013C126.941 279.215 126.719 279.376 126.445 279.496C126.17 279.61 125.84 279.67 125.452 279.673ZM121.544 281.441L120.48 281.452L120.411 275.068L121.475 275.057L121.544 281.441ZM127.5 268.945C127.504 269.365 127.437 269.784 127.296 270.2C127.151 270.613 126.931 270.988 126.636 271.327C126.341 271.666 125.964 271.938 125.504 272.143C125.044 272.348 124.499 272.454 123.87 272.46C123.24 272.467 122.692 272.372 122.228 272.176C121.764 271.979 121.383 271.715 121.086 271.382C120.783 271.044 120.558 270.668 120.409 270.254C120.259 269.84 120.183 269.419 120.178 268.99C120.173 268.542 120.238 268.112 120.374 267.7C120.51 267.288 120.713 266.922 120.985 266.601C121.257 266.277 121.6 266.019 122.013 265.828C122.426 265.638 122.911 265.539 123.466 265.534C123.554 265.533 123.653 265.537 123.76 265.545C123.867 265.549 123.961 265.559 124.04 265.577L124.103 271.352L123.214 271.361L123.167 267C123.139 267 123.12 267 123.111 267.001C123.097 267.001 123.078 267.001 123.055 267.001C122.677 267.005 122.351 267.097 122.078 267.277C121.804 267.457 121.597 267.697 121.455 267.997C121.309 268.292 121.238 268.613 121.242 268.958C121.244 269.21 121.296 269.459 121.397 269.706C121.493 269.952 121.644 270.177 121.852 270.38C122.06 270.583 122.33 270.746 122.662 270.869C122.99 270.987 123.385 271.044 123.847 271.039C124.421 271.034 124.901 270.929 125.286 270.724C125.666 270.515 125.953 270.249 126.145 269.925C126.338 269.596 126.432 269.248 126.428 268.879C126.424 268.534 126.367 268.236 126.257 267.985C126.143 267.734 126.003 267.53 125.838 267.373C125.668 267.216 125.504 267.11 125.344 267.056L125.968 265.775C126.165 265.881 126.355 266.028 126.539 266.218C126.719 266.403 126.88 266.63 127.023 266.899C127.166 267.164 127.279 267.468 127.362 267.813C127.449 268.153 127.495 268.53 127.5 268.945ZM127.335 253.653C127.339 254.021 127.27 254.384 127.13 254.74C126.989 255.091 126.771 255.411 126.475 255.698C126.175 255.986 125.795 256.218 125.334 256.396C124.874 256.568 124.329 256.658 123.699 256.664C122.859 256.672 122.169 256.539 121.63 256.264C121.085 255.99 120.685 255.632 120.428 255.191C120.167 254.75 120.033 254.285 120.028 253.795C120.023 253.356 120.105 252.966 120.274 252.623C120.443 252.276 120.667 251.982 120.944 251.742C121.217 251.496 121.513 251.311 121.834 251.187C122.155 251.058 122.464 250.992 122.763 250.989L122.958 251.512C122.729 251.561 122.509 251.638 122.295 251.742C122.077 251.843 121.88 251.973 121.704 252.133C121.529 252.294 121.391 252.479 121.29 252.69C121.185 252.901 121.134 253.138 121.137 253.399C121.141 253.744 121.235 254.061 121.42 254.348C121.601 254.636 121.878 254.864 122.254 255.033C122.624 255.202 123.101 255.284 123.684 255.278C124.258 255.272 124.733 255.179 125.109 254.998C125.485 254.812 125.765 254.571 125.949 254.276C126.132 253.975 126.222 253.65 126.218 253.3C126.215 253.043 126.157 252.81 126.043 252.602C125.924 252.388 125.768 252.205 125.575 252.053C125.382 251.901 125.166 251.779 124.927 251.688C124.688 251.597 124.442 251.542 124.19 251.521L124.373 250.952C124.681 250.949 125.008 251.006 125.355 251.124C125.697 251.242 126.018 251.416 126.319 251.647C126.616 251.877 126.859 252.159 127.049 252.494C127.235 252.828 127.33 253.214 127.335 253.653ZM116.644 250.237L126.695 250.138L126.079 250.767L126.06 249.038L127.131 249.028L127.156 251.365L125.688 251.541L116.659 251.63L116.644 250.237ZM127.117 247.692L126.053 247.703L126.028 245.407L121.156 245.455L121.177 247.429L120.114 247.439L120.077 244.079L126.013 244.021L125.99 241.844L127.054 241.834L127.117 247.692ZM117.174 245.536L117.158 244.08L118.747 244.065L118.763 245.52L117.174 245.536ZM127.153 236.771C127.158 237.271 127.11 237.726 127.007 238.138C126.904 238.55 126.761 238.903 126.577 239.199C126.389 239.495 126.179 239.726 125.947 239.891L125.18 238.793C125.314 238.717 125.437 238.615 125.547 238.488C125.653 238.357 125.747 238.202 125.829 238.023C125.911 237.845 125.975 237.649 126.019 237.434C126.063 237.214 126.084 236.978 126.081 236.726C126.079 236.483 126.055 236.255 126.011 236.041C125.967 235.826 125.899 235.638 125.809 235.476C125.718 235.308 125.603 235.179 125.462 235.087C125.316 234.995 125.145 234.95 124.949 234.952C124.707 234.954 124.516 235.054 124.378 235.252C124.236 235.449 124.124 235.714 124.044 236.046C123.963 236.373 123.897 236.743 123.846 237.154C123.803 237.462 123.738 237.769 123.653 238.073C123.563 238.372 123.44 238.649 123.284 238.903C123.128 239.151 122.932 239.352 122.695 239.503C122.454 239.655 122.161 239.733 121.816 239.736C121.54 239.739 121.295 239.683 121.079 239.568C120.863 239.454 120.677 239.297 120.521 239.098C120.364 238.899 120.236 238.671 120.135 238.416C120.034 238.155 119.959 237.883 119.909 237.599C119.86 237.31 119.833 237.023 119.83 236.738C119.825 236.258 119.883 235.828 120.005 235.449C120.122 235.065 120.273 234.744 120.457 234.485C120.641 234.222 120.83 234.031 121.025 233.913L121.736 234.977C121.611 235.043 121.498 235.138 121.396 235.26C121.295 235.378 121.205 235.516 121.128 235.676C121.05 235.835 120.991 236.011 120.951 236.202C120.912 236.394 120.893 236.595 120.895 236.805C120.897 236.968 120.913 237.148 120.943 237.344C120.968 237.535 121.017 237.714 121.089 237.881C121.156 238.048 121.248 238.185 121.366 238.291C121.484 238.398 121.634 238.45 121.816 238.448C122.03 238.446 122.204 238.363 122.338 238.198C122.467 238.033 122.57 237.811 122.646 237.53C122.722 237.244 122.786 236.924 122.838 236.569C122.873 236.33 122.917 236.078 122.97 235.812C123.023 235.54 123.095 235.278 123.186 235.025C123.276 234.768 123.395 234.536 123.542 234.329C123.685 234.117 123.863 233.95 124.076 233.827C124.289 233.698 124.55 233.633 124.858 233.63C125.171 233.627 125.451 233.682 125.7 233.797C125.944 233.911 126.158 234.07 126.342 234.273C126.521 234.477 126.671 234.713 126.791 234.983C126.91 235.248 127 235.534 127.059 235.841C127.118 236.144 127.15 236.454 127.153 236.771ZM124.911 229.501L117.702 229.572L117.687 228.179L124.854 228.108C125.162 228.105 125.405 228.061 125.581 227.975C125.757 227.885 125.884 227.764 125.962 227.614C126.035 227.464 126.071 227.296 126.069 227.109C126.067 226.918 126.027 226.741 125.951 226.578C125.875 226.416 125.745 226.286 125.562 226.19C125.379 226.094 125.124 226.047 124.797 226.051L124.785 224.91C125.196 224.906 125.544 224.967 125.83 225.095C126.111 225.223 126.34 225.398 126.515 225.621C126.69 225.838 126.818 226.089 126.901 226.373C126.983 226.652 127.026 226.946 127.029 227.254C127.033 227.571 126.999 227.865 126.927 228.137C126.855 228.403 126.736 228.638 126.57 228.84C126.4 229.043 126.178 229.203 125.904 229.323C125.629 229.438 125.299 229.497 124.911 229.501ZM121.003 231.268L119.939 231.279L119.87 224.895L120.934 224.885L121.003 231.268ZM126.839 221.91L125.775 221.92L125.759 220.443L120.887 220.491L120.903 221.968L119.839 221.979L119.811 219.375L121.537 219.099L125.744 219.057L125.726 217.37L126.79 217.36L126.839 221.91ZM122.734 219.108L122.516 219.67C122.213 219.664 121.921 219.606 121.639 219.497C121.353 219.383 121.088 219.232 120.843 219.043C120.599 218.854 120.386 218.634 120.206 218.384C120.026 218.134 119.883 217.864 119.778 217.576C119.672 217.283 119.617 216.983 119.614 216.675C119.61 216.362 119.636 216.126 119.69 215.967C119.74 215.803 119.781 215.695 119.813 215.644L121.006 215.947C120.969 215.994 120.931 216.092 120.89 216.242C120.845 216.392 120.824 216.59 120.827 216.838C120.829 217.099 120.886 217.357 120.996 217.613C121.106 217.864 121.253 218.096 121.438 218.309C121.617 218.517 121.822 218.692 122.052 218.835C122.278 218.972 122.505 219.064 122.734 219.108ZM126.753 213.925L125.689 213.935L125.664 211.639L120.792 211.687L120.813 213.661L119.749 213.672L119.713 210.312L125.649 210.253L125.625 208.076L126.689 208.066L126.753 213.925ZM116.81 211.769L116.794 210.313L118.383 210.297L118.399 211.753L116.81 211.769ZM126.667 205.959L116.167 206.063L116.152 204.677L125.077 204.589L126.653 204.727L126.667 205.959ZM126.783 202.437C126.787 202.875 126.701 203.266 126.522 203.608C126.339 203.946 126.102 204.233 125.811 204.469C125.514 204.706 125.197 204.886 124.857 205.011C124.513 205.131 124.187 205.193 123.879 205.196L123.684 204.63C123.936 204.605 124.18 204.544 124.417 204.448C124.654 204.353 124.868 204.227 125.057 204.071C125.247 203.915 125.399 203.731 125.513 203.52C125.623 203.309 125.677 203.073 125.674 202.812C125.67 202.462 125.573 202.141 125.383 201.849C125.193 201.552 124.909 201.317 124.529 201.143C124.149 200.965 123.672 200.878 123.098 200.884C122.514 200.89 122.039 200.983 121.673 201.164C121.301 201.34 121.028 201.574 120.854 201.865C120.675 202.152 120.588 202.468 120.591 202.813C120.594 203.074 120.65 203.309 120.76 203.518C120.865 203.727 121.007 203.91 121.186 204.067C121.365 204.224 121.565 204.353 121.785 204.453C122.001 204.549 122.223 204.619 122.452 204.664L122.269 205.197C121.971 205.2 121.66 205.14 121.336 205.018C121.013 204.895 120.712 204.716 120.434 204.48C120.152 204.245 119.922 203.956 119.746 203.612C119.57 203.269 119.479 202.877 119.474 202.439C119.469 201.949 119.592 201.481 119.844 201.035C120.091 200.589 120.484 200.224 121.022 199.938C121.556 199.653 122.243 199.506 123.083 199.498C123.713 199.492 124.26 199.573 124.724 199.741C125.187 199.904 125.572 200.127 125.879 200.409C126.181 200.69 126.406 201.008 126.554 201.361C126.703 201.71 126.779 202.068 126.783 202.437ZM126.706 194.676C126.71 195.035 126.657 195.365 126.549 195.664C126.44 195.959 126.268 196.213 126.032 196.425C125.791 196.633 125.483 196.795 125.106 196.911C124.725 197.026 124.268 197.087 123.736 197.092L119.571 197.133L119.556 195.747L123.511 195.708C124.006 195.703 124.406 195.648 124.713 195.542C125.015 195.432 125.238 195.271 125.38 195.06C125.518 194.844 125.585 194.57 125.581 194.239C125.579 194.001 125.53 193.777 125.434 193.568C125.338 193.354 125.206 193.167 125.036 193.005C124.866 192.839 124.671 192.705 124.451 192.605C124.23 192.504 123.996 192.448 123.749 192.437L123.871 192.044C124.22 192.04 124.564 192.095 124.901 192.208C125.234 192.317 125.537 192.482 125.81 192.703C126.078 192.92 126.293 193.193 126.456 193.523C126.618 193.853 126.701 194.237 126.706 194.676ZM126.518 192.185L125.023 192.459L119.521 192.513L119.506 191.127L125.771 191.066L125.445 191.342L125.433 190.243L126.497 190.233L126.518 192.185ZM124.449 186.628L117.24 186.699L117.224 185.306L124.392 185.236C124.7 185.233 124.942 185.188 125.119 185.102C125.295 185.012 125.422 184.892 125.5 184.742C125.573 184.592 125.608 184.423 125.606 184.237C125.604 184.045 125.565 183.868 125.489 183.706C125.412 183.543 125.283 183.414 125.1 183.318C124.916 183.221 124.662 183.175 124.335 183.178L124.323 182.037C124.733 182.033 125.082 182.095 125.368 182.223C125.649 182.351 125.877 182.526 126.052 182.748C126.227 182.966 126.356 183.216 126.439 183.5C126.521 183.78 126.564 184.073 126.567 184.381C126.57 184.698 126.536 184.993 126.465 185.264C126.393 185.531 126.274 185.765 126.108 185.968C125.938 186.17 125.715 186.331 125.441 186.45C125.167 186.565 124.836 186.624 124.449 186.628ZM120.541 188.396L119.477 188.406L119.408 182.023L120.472 182.012L120.541 188.396ZM126.383 179.61L125.319 179.621L125.294 177.325L120.422 177.373L120.443 179.347L119.379 179.357L119.343 175.997L125.279 175.939L125.255 173.762L126.319 173.752L126.383 179.61ZM116.44 177.454L116.424 175.998L118.013 175.983L118.029 177.438L116.44 177.454ZM126.418 168.633C126.422 168.941 126.383 169.259 126.303 169.587C126.227 169.909 126.102 170.221 125.928 170.521C125.753 170.822 125.525 171.095 125.243 171.34C124.957 171.581 124.611 171.773 124.207 171.917C123.802 172.057 123.329 172.129 122.788 172.134C122.251 172.14 121.779 172.077 121.372 171.945C120.964 171.809 120.617 171.624 120.33 171.388C120.042 171.149 119.808 170.88 119.628 170.583C119.447 170.286 119.316 169.977 119.233 169.656C119.145 169.33 119.1 169.013 119.097 168.706C119.093 168.398 119.132 168.082 119.212 167.759C119.288 167.432 119.413 167.118 119.587 166.818C119.761 166.513 119.989 166.24 120.272 165.999C120.554 165.758 120.897 165.566 121.301 165.422C121.706 165.278 122.176 165.203 122.713 165.198C123.254 165.192 123.729 165.258 124.136 165.394C124.544 165.53 124.893 165.715 125.185 165.95C125.472 166.186 125.706 166.454 125.887 166.755C126.068 167.052 126.199 167.364 126.282 167.69C126.37 168.011 126.415 168.325 126.418 168.633ZM125.347 168.644C125.345 168.411 125.3 168.175 125.214 167.938C125.122 167.701 124.975 167.483 124.773 167.285C124.57 167.081 124.302 166.918 123.969 166.795C123.632 166.668 123.218 166.607 122.728 166.612C122.243 166.616 121.838 166.686 121.512 166.82C121.182 166.949 120.918 167.117 120.72 167.324C120.521 167.527 120.379 167.748 120.293 167.987C120.207 168.226 120.165 168.462 120.168 168.695C120.17 168.924 120.217 169.159 120.308 169.401C120.399 169.638 120.546 169.858 120.749 170.061C120.952 170.26 121.22 170.421 121.553 170.543C121.881 170.666 122.287 170.725 122.773 170.72C123.263 170.716 123.675 170.648 124.009 170.519C124.339 170.39 124.604 170.224 124.802 170.021C125.001 169.814 125.143 169.591 125.229 169.352C125.31 169.109 125.35 168.873 125.347 168.644ZM126.199 162.54L119.199 162.609L119.186 161.37L120.619 161.202L126.184 161.147L126.199 162.54ZM126.149 157.92L122.194 157.959C121.699 157.964 121.301 158.021 120.999 158.132C120.692 158.237 120.47 158.398 120.332 158.614C120.19 158.826 120.12 159.097 120.124 159.428C120.126 159.666 120.175 159.892 120.271 160.106C120.367 160.315 120.499 160.503 120.669 160.669C120.839 160.831 121.034 160.962 121.254 161.062C121.475 161.163 121.709 161.219 121.956 161.23L121.834 161.624C121.484 161.627 121.143 161.575 120.811 161.466C120.473 161.352 120.171 161.187 119.902 160.971C119.629 160.749 119.412 160.474 119.249 160.144C119.087 159.814 119.004 159.43 118.999 158.992C118.995 158.628 119.047 158.298 119.156 158.003C119.265 157.708 119.44 157.454 119.68 157.242C119.916 157.029 120.224 156.865 120.606 156.75C120.983 156.634 121.437 156.573 121.969 156.568L126.134 156.527L126.149 157.92Z" fill="white"/>
<ellipse cx="174" cy="74.5" rx="10" ry="10.5" fill="#FF008E"/>
<circle cx="241" cy="98" r="10" fill="#612897"/>
<ellipse cx="275.5" cy="113.5" rx="9.5" ry="10.5" fill="#612897"/>
<circle cx="151" cy="22" r="10" fill="#612897"/>
<circle cx="313" cy="32" r="10" fill="#612897"/>
<circle cx="346" cy="37" r="10" fill="#D22779"/>
<ellipse cx="308.5" cy="84.5" rx="9.5" ry="10.5" fill="#D22779"/>
<ellipse cx="193.5" cy="27" rx="9.5" ry="10" fill="#D22779"/>
<ellipse cx="216.5" cy="142.5" rx="9.5" ry="10.5" fill="#D22779"/>
<ellipse cx="257.5" cy="54" rx="9.5" ry="10" fill="#0C1E7F"/>
<circle cx="374" cy="110" r="10" fill="#0C1E7F"/>
<circle cx="323" cy="124" r="10" fill="#0C1E7F"/>
<ellipse cx="177" cy="120.5" rx="10" ry="10.5" fill="#0C1E7F"/>
<line x1="113.24" y1="323.5" x2="421.24" y2="323.5" stroke="black"/>
<line x1="136.12" y1="324.002" x2="136.12" y2="143.998" stroke="black"/>
<path d="M294.781 166.299C294.835 166.584 295.103 166.772 295.379 166.719L299.874 165.864C300.15 165.811 300.329 165.538 300.275 165.253C300.221 164.969 299.953 164.78 299.678 164.833L295.682 165.594L294.897 161.472C294.843 161.187 294.576 160.999 294.3 161.051C294.024 161.104 293.844 161.377 293.898 161.662L294.781 166.299ZM322.788 123.432L294.858 165.907L295.703 166.501L323.633 124.026L322.788 123.432Z" fill="#0C1E7F"/>
<path d="M231.219 173.42C231.443 173.413 231.619 173.219 231.611 172.987L231.49 169.208C231.482 168.976 231.294 168.794 231.07 168.801C230.846 168.809 230.67 169.002 230.678 169.234L230.786 172.593L227.537 172.698C227.313 172.705 227.138 172.899 227.145 173.131C227.152 173.363 227.34 173.545 227.565 173.538L231.219 173.42ZM178.353 122.336L230.928 173.306L231.483 172.694L178.908 121.724L178.353 122.336Z" fill="#0C1E7F"/>
<path d="M307.917 172.98C307.906 173.27 308.124 173.514 308.404 173.525L312.971 173.702C313.251 173.713 313.488 173.487 313.499 173.198C313.51 172.908 313.292 172.664 313.012 172.653L308.952 172.495L309.116 168.297C309.127 168.008 308.909 167.764 308.629 167.753C308.348 167.742 308.112 167.968 308.101 168.258L307.917 172.98ZM373.798 109.752L308.08 172.615L308.769 173.385L374.487 110.522L373.798 109.752Z" fill="#0C1E7F"/>
<path d="M237.758 166.729C238.038 166.739 238.274 166.513 238.285 166.223L238.46 161.5C238.47 161.211 238.252 160.967 237.972 160.957C237.691 160.946 237.455 161.173 237.445 161.463L237.289 165.661L233.23 165.51C232.949 165.5 232.713 165.727 232.703 166.016C232.692 166.306 232.91 166.55 233.191 166.56L237.758 166.729ZM216.046 142.776L237.405 166.562L238.15 165.846L216.792 142.06L216.046 142.776Z" fill="#D22779"/>
<path d="M281.677 161.329C281.803 161.589 282.111 161.7 282.365 161.577L286.506 159.574C286.76 159.451 286.864 159.141 286.739 158.881C286.613 158.622 286.306 158.511 286.051 158.634L282.37 160.415L280.552 156.656C280.427 156.397 280.119 156.286 279.865 156.409C279.611 156.532 279.507 156.842 279.632 157.101L281.677 161.329ZM307.939 82.7781L281.651 160.932L282.624 161.282L308.911 83.1277L307.939 82.7781Z" fill="#D22779"/>
<path d="M244.3 163.329C244.579 163.355 244.828 163.143 244.855 162.854L245.3 158.15C245.328 157.862 245.123 157.606 244.844 157.58C244.565 157.553 244.316 157.766 244.289 158.054L243.893 162.236L239.847 161.852C239.568 161.826 239.32 162.039 239.292 162.327C239.265 162.616 239.469 162.871 239.748 162.898L244.3 163.329ZM173.31 74.7937L243.957 163.142L244.742 162.47L174.095 74.1223L173.31 74.7937Z" fill="#FF008E"/>
<path d="M288.231 162.983C288.331 163.254 288.626 163.394 288.89 163.296L293.194 161.703C293.458 161.605 293.591 161.306 293.491 161.036C293.391 160.765 293.095 160.624 292.831 160.722L289.005 162.138L287.553 158.214C287.452 157.943 287.157 157.803 286.893 157.901C286.629 157.998 286.496 158.297 286.596 158.568L288.231 162.983ZM344.103 36.8582L288.242 162.584L289.175 163.028L345.036 37.3015L344.103 36.8582Z" fill="#D22779"/>
<path d="M252.384 159.899C252.648 159.996 252.943 159.856 253.043 159.584L254.67 155.167C254.769 154.896 254.636 154.597 254.372 154.5C254.108 154.402 253.813 154.543 253.713 154.814L252.267 158.741L248.439 157.332C248.174 157.234 247.879 157.375 247.78 157.646C247.68 157.917 247.813 158.216 248.077 158.313L252.384 159.899ZM192.952 27.1087L252.098 159.631L253.03 159.186L193.884 26.6637L192.952 27.1087Z" fill="#D22779"/>
<defs>
<linearGradient id="paint0_linear_131_56" x1="177.74" y1="277" x2="177.74" y2="324" gradientUnits="userSpaceOnUse">
<stop stop-color="#0C1E7F"/>
<stop offset="1" stop-color="#FF008E"/>
</linearGradient>
<linearGradient id="paint1_linear_131_56" x1="190.24" y1="271" x2="190.24" y2="324" gradientUnits="userSpaceOnUse">
<stop stop-color="#0C1E7F"/>
<stop offset="1" stop-color="#FF008E"/>
</linearGradient>
<linearGradient id="paint2_linear_131_56" x1="202.24" y1="265" x2="202.24" y2="324" gradientUnits="userSpaceOnUse">
<stop stop-color="#0C1E7F"/>
<stop offset="1" stop-color="#FF008E"/>
</linearGradient>
<linearGradient id="paint3_linear_131_56" x1="214.74" y1="229" x2="214.74" y2="324" gradientUnits="userSpaceOnUse">
<stop stop-color="#0C1E7F"/>
<stop offset="1" stop-color="#FF008E"/>
</linearGradient>
<linearGradient id="paint4_linear_131_56" x1="227.24" y1="215" x2="227.24" y2="324" gradientUnits="userSpaceOnUse">
<stop stop-color="#0C1E7F"/>
<stop offset="1" stop-color="#FF008E"/>
</linearGradient>
<linearGradient id="paint5_linear_131_56" x1="239.24" y1="203" x2="239.24" y2="324" gradientUnits="userSpaceOnUse">
<stop stop-color="#0C1E7F"/>
<stop offset="1" stop-color="#FF008E"/>
</linearGradient>
<linearGradient id="paint6_linear_131_56" x1="251.74" y1="191" x2="251.74" y2="324" gradientUnits="userSpaceOnUse">
<stop stop-color="#0C1E7F"/>
<stop offset="1" stop-color="#FF008E"/>
</linearGradient>
<linearGradient id="paint7_linear_131_56" x1="264.24" y1="176" x2="264.24" y2="324" gradientUnits="userSpaceOnUse">
<stop stop-color="#0C1E7F"/>
<stop offset="1" stop-color="#FF008E"/>
</linearGradient>
<linearGradient id="paint8_linear_131_56" x1="276.24" y1="218" x2="276.24" y2="324" gradientUnits="userSpaceOnUse">
<stop stop-color="#0C1E7F"/>
<stop offset="1" stop-color="#FF008E"/>
</linearGradient>
<linearGradient id="paint9_linear_131_56" x1="288.74" y1="283" x2="288.74" y2="324" gradientUnits="userSpaceOnUse">
<stop stop-color="#0C1E7F"/>
<stop offset="1" stop-color="#FF008E"/>
</linearGradient>
<linearGradient id="paint10_linear_131_56" x1="301.24" y1="297" x2="301.24" y2="324" gradientUnits="userSpaceOnUse">
<stop stop-color="#0C1E7F"/>
<stop offset="1" stop-color="#FF008E"/>
</linearGradient>
<linearGradient id="paint11_linear_131_56" x1="313.24" y1="309" x2="313.24" y2="324" gradientUnits="userSpaceOnUse">
<stop stop-color="#0C1E7F"/>
<stop offset="1" stop-color="#FF008E"/>
</linearGradient>
<linearGradient id="paint12_linear_131_56" x1="325.74" y1="315" x2="325.74" y2="324" gradientUnits="userSpaceOnUse">
<stop stop-color="#0C1E7F"/>
<stop offset="1" stop-color="#FF008E"/>
</linearGradient>
<linearGradient id="paint13_linear_131_56" x1="165.24" y1="306" x2="165.24" y2="324" gradientUnits="userSpaceOnUse">
<stop stop-color="#0C1E7F"/>
<stop offset="1" stop-color="#FF008E"/>
</linearGradient>
<linearGradient id="paint14_linear_131_56" x1="153.24" y1="315" x2="153.24" y2="324" gradientUnits="userSpaceOnUse">
<stop stop-color="#0C1E7F"/>
<stop offset="1" stop-color="#FF008E"/>
</linearGradient>
</defs>
</svg>
